<?xml version="1.0" encoding="UTF-8"?>
<svg version="1.1" xmlns="http://www.w3.org/2000/svg" width="543" height="543">
<path d="M0 0 C0.89460938 0.35578125 1.78921875 0.7115625 2.7109375 1.078125 C5.1432903 2.04561547 7.57262718 3.02009745 10 4 C10 4.66 10 5.32 10 6 C10.66 6.0825 11.32 6.165 12 6.25 C19.40110234 8.10027558 26.84434976 12.58508692 33 17 C33 17.66 33 18.32 33 19 C33.556875 19.268125 34.11375 19.53625 34.6875 19.8125 C39.86162984 22.46948559 44.02521304 25.63935193 48.25 29.625 C48.81485107 30.15335449 49.37970215 30.68170898 49.96166992 31.22607422 C61.25113254 41.83205455 61.25113254 41.83205455 64 45 C64 45.66 64 46.32 64 47 C64.99 47.33 65.98 47.66 67 48 C72.56359957 53.921653 76.75495446 61.11540692 81 68 C82.02867187 69.63775391 82.02867187 69.63775391 83.078125 71.30859375 C89.0878011 80.93520455 93.77609553 90.47397609 98 101 C98.52787109 102.26070312 98.52787109 102.26070312 99.06640625 103.546875 C101.79334198 110.43372446 103.27738603 117.46730626 104.69360352 124.71508789 C105.14580371 128.68158484 105.14580371 128.68158484 107 132 C111.76222726 154.00357558 111.50116237 183.47800682 105 205 C104.35867954 207.82181004 104 210.09833217 104 213 C103.56306152 214.49218614 103.079336 215.97107057 102.5625 217.4375 C101.56902528 220.27394232 100.68671604 223.0731229 100 226 C99.34 226 98.68 226 98 226 C97.83564453 226.96099609 97.83564453 226.96099609 97.66796875 227.94140625 C96.67539672 233.3561691 95.37541347 238.03322639 93 243 C92.34 243 91.68 243 91 243 C90.9175 243.66 90.835 244.32 90.75 245 C88.89972442 252.40110234 84.41491308 259.84434976 80 266 C79.34 266 78.68 266 78 266 C77.731875 266.7425 77.46375 267.485 77.1875 268.25 C76.04723249 270.89061949 74.90619694 272.85552844 73 275 C72.34 275 71.68 275 71 275 C70.95875 275.721875 70.9175 276.44375 70.875 277.1875 C69.85025959 280.48130847 68.32804035 281.62378685 65.625 283.6640625 C63.90679863 285.07662228 62.62532244 286.56878763 61.25 288.3125 C60.5075 289.199375 59.765 290.08625 59 291 C58.34 291 57.68 291 57 291 C56.690625 291.82757813 56.690625 291.82757813 56.375 292.671875 C54.48788097 295.86711063 51.84313599 297.94330476 49 300.25 C48.4534375 300.70890625 47.906875 301.1678125 47.34375 301.640625 C43.26450893 305 43.26450893 305 41 305 C40.773125 305.598125 40.54625 306.19625 40.3125 306.8125 C38.64390958 309.59348403 36.8716168 310.5641916 34 312 C33.34 312 32.68 312 32 312 C32 312.66 32 313.32 32 314 C30.54462432 314.83848804 29.08559627 315.67063934 27.625 316.5 C26.81289063 316.9640625 26.00078125 317.428125 25.1640625 317.90625 C23 319 23 319 21 319 C21 319.66 21 320.32 21 321 C19.21046815 321.83790789 17.41830305 322.67019396 15.625 323.5 C14.62726563 323.9640625 13.62953125 324.428125 12.6015625 324.90625 C10 326 10 326 8 326 C8 326.66 8 327.32 8 328 C6.42032193 328.67528223 4.83608097 329.33989694 3.25 330 C2.36828125 330.37125 1.4865625 330.7425 0.578125 331.125 C-2 332 -2 332 -6 332 C-6 332.66 -6 333.32 -6 334 C-6.66008057 334.17128418 -7.32016113 334.34256836 -8.00024414 334.51904297 C-11.02122429 335.30348614 -14.04186402 336.08923262 -17.0625 336.875 C-18.10083984 337.14441406 -19.13917969 337.41382813 -20.20898438 337.69140625 C-21.22412109 337.95566406 -22.23925781 338.21992188 -23.28515625 338.4921875 C-24.2810376 338.75112793 -25.27691895 339.01006836 -26.30297852 339.27685547 C-28.43327268 339.84804505 -30.54824029 340.47638163 -32.65625 341.125 C-36.90266314 342.23621091 -41.0733326 342.72219836 -45.4375 343.125 C-46.33839355 343.20919189 -47.23928711 343.29338379 -48.16748047 343.38012695 C-55.32176344 343.98458486 -62.44680011 344.18187754 -69.625 344.1875 C-70.59493896 344.18830566 -71.56487793 344.18911133 -72.56420898 344.18994141 C-91.43835407 344.04441986 -91.43835407 344.04441986 -98 340.1875 C-98.886875 339.68605469 -99.77375 339.18460937 -100.6875 338.66796875 C-103.04177156 336.96987085 -104.48139208 335.46274245 -106 333 C-106 332.34 -106 331.68 -106 331 C-106.66 331 -107.32 331 -108 331 C-112.02062612 321.23562229 -113.57882657 313.21529138 -110 303 C-106.44615761 295.4946825 -101.39241758 291.56261088 -94 288 C-90.42836393 286.80945464 -87.63624393 286.92058714 -83.8671875 286.97265625 C-82.41488232 286.98749857 -80.96257065 287.00171664 -79.51025391 287.01538086 C-78.37393524 287.02793411 -78.37393524 287.02793411 -77.21466064 287.04074097 C-49.51639308 287.2983371 -27.22660323 283.16164532 -3 269 C-2.16597656 268.52175781 -1.33195312 268.04351562 -0.47265625 267.55078125 C14.01193382 258.56871702 27.12734574 245.47144144 36 231 C36.56460937 230.13117188 37.12921875 229.26234375 37.7109375 228.3671875 C42.56494993 220.58804967 45.57957925 212.54508328 48.3894043 203.87329102 C48.93785556 202.19065745 49.51775117 200.51835037 50.1015625 198.84765625 C54.37094616 185.31556631 55.90997239 167.87159769 53 154 C52.8301357 151.91848823 52.68587489 149.83478387 52.5625 147.75 C52.17565768 142.32806721 51.37971216 137.24937361 50 132 C49.855625 131.27941406 49.71125 130.55882812 49.5625 129.81640625 C49.376875 129.21699219 49.19125 128.61757812 49 128 C48.34 127.67 47.68 127.34 47 127 C46.39453125 125.20703125 46.39453125 125.20703125 45.8125 122.8125 C43.03565958 113.02343629 37.99110652 103.90148478 32.06640625 95.671875 C31 94 31 94 31 92 C30.01 91.67 29.02 91.34 28 91 C26.61910767 89.37251976 25.29786393 87.69443347 24 86 C18.68271273 79.52972952 12.99426032 73.66284021 6 69 C6 68.34 6 67.68 6 67 C5.278125 66.731875 4.55625 66.46375 3.8125 66.1875 C1.00233617 65.00098638 -1.48416557 63.72514361 -4 62 C-4 61.34 -4 60.68 -4 60 C-4.680625 59.90460938 -5.36125 59.80921875 -6.0625 59.7109375 C-9.6491433 58.84289351 -12.72607349 57.27276201 -16 55.625 C-22.85195081 52.30215323 -29.50025435 50.3975904 -37 49 C-37.83789062 48.79632813 -38.67578125 48.59265625 -39.5390625 48.3828125 C-48.70798896 46.20257917 -58.08149376 45.81832904 -67 49 C-69.1328125 49.30859375 -69.1328125 49.30859375 -71.125 49.4375 C-76.82266051 49.9917093 -82.63734624 50.96288802 -88 53 C-88.33 53.99 -88.66 54.98 -89 56 C-89.94875 56.61875 -90.8975 57.2375 -91.875 57.875 C-95.21694698 60.14752395 -96.25197065 61.42448542 -98 65 C-98.32871094 65.6496875 -98.65742188 66.299375 -98.99609375 66.96875 C-104.00753306 77.39548086 -104.2904709 87.69524679 -104.25537109 99.11889648 C-104.25812665 100.6233438 -104.26180996 102.12778965 -104.26634216 103.63223267 C-104.27441407 106.85744126 -104.27663253 110.0825807 -104.27439499 113.30779839 C-104.27153676 118.43662422 -104.28601205 123.56531503 -104.30337524 128.69410706 C-104.3501477 143.27432188 -104.37428828 157.85452786 -104.38085938 172.43481445 C-104.38464711 180.49932918 -104.40297536 188.56369087 -104.43595374 196.62814003 C-104.4526313 200.87723664 -104.46214695 205.1260554 -104.45301437 209.3751812 C-104.36482393 254.0944718 -104.36482393 254.0944718 -110 271 C-109.34 271.33 -108.68 271.66 -108 272 C-108.99 272 -109.98 272 -111 272 C-111 273.32 -111 274.64 -111 276 C-111.66 276 -112.32 276 -113 276 C-113.0825 276.804375 -113.165 277.60875 -113.25 278.4375 C-114.20196675 282.95934205 -116.01580179 286.84702701 -118 291 C-118.66 291 -119.32 291 -120 291 C-120.0825 291.680625 -120.165 292.36125 -120.25 293.0625 C-121.7336181 298.87333757 -124.71903535 302.9636619 -129 307 C-130.1531799 308.32698452 -131.29826278 309.66102638 -132.4375 311 C-135.0800284 314.05471766 -137.81758415 316.50567406 -141 319 C-141.66 319.86625 -142.32 320.7325 -143 321.625 C-145.23243321 324.27601443 -146.84832681 324.75591848 -150 326 C-151.09166275 327.93330603 -151.09166275 327.93330603 -152 330 C-156.49836961 333.77282613 -163.02478486 339 -169 339 C-169 339.66 -169 340.32 -169 341 C-170.95649397 341.83764268 -172.91525556 342.66999059 -174.875 343.5 C-175.96554688 343.9640625 -177.05609375 344.428125 -178.1796875 344.90625 C-181 346 -181 346 -183 346 C-183 346.66 -183 347.32 -183 348 C-183.82407349 348.21148682 -183.82407349 348.21148682 -184.66479492 348.42724609 C-187.17325921 349.07307317 -189.68037629 349.72398903 -192.1875 350.375 C-193.05181641 350.59671875 -193.91613281 350.8184375 -194.80664062 351.046875 C-195.64775391 351.26601563 -196.48886719 351.48515625 -197.35546875 351.7109375 C-198.12528076 351.90993652 -198.89509277 352.10893555 -199.68823242 352.31396484 C-202.04583066 352.96749651 -202.04583066 352.96749651 -204.40063477 354.01123047 C-214.21331643 357.74386508 -225.66468741 357.32043692 -236.03320312 357.26074219 C-238.26199095 357.24994189 -240.4899851 357.26075189 -242.71875 357.2734375 C-252.67648032 357.28393969 -261.56449035 356.32489388 -271 353 C-272.93706153 352.46515468 -274.87420214 351.9305773 -276.81274414 351.40112305 C-286.04737359 348.84284526 -294.4574329 345.31480463 -303 341 C-303 340.34 -303 339.68 -303 339 C-303.68707031 338.9278125 -304.37414062 338.855625 -305.08203125 338.78125 C-308.85167379 337.77197489 -311.59501985 335.78484109 -314.6875 333.5 C-315.60680298 332.83266846 -315.60680298 332.83266846 -316.54467773 332.15185547 C-321.22054015 328.7040405 -325.58038559 324.98688217 -329.81640625 321.0078125 C-332.00889502 318.94076476 -332.00889502 318.94076476 -334.54296875 316.99609375 C-336.86454101 315.11004697 -338.78887158 313.18932666 -340.75 310.9375 C-341.34296875 310.26589844 -341.9359375 309.59429687 -342.546875 308.90234375 C-344 307 -344 307 -345 304 C-345.66 304 -346.32 304 -347 304 C-351 298.58823529 -351 298.58823529 -351 296 C-351.66 296 -352.32 296 -353 296 C-360.29822303 284.12521906 -364.74625136 274.28933166 -364 260 C-363.34 260 -362.68 260 -362 260 C-361.979375 259.175 -361.95875 258.35 -361.9375 257.5 C-360.13562532 250.77300118 -354.46454162 245.6675196 -348.734375 241.90234375 C-342.85609924 238.84405163 -335.30302236 239.73051803 -329 241 C-320.76303414 244.02022082 -314.72232464 250.0530824 -311 257.9375 C-310.69964844 258.59363281 -310.39929688 259.24976563 -310.08984375 259.92578125 C-307.27029827 265.29201297 -302.98829021 269.85369381 -299.0625 274.4375 C-297 277 -297 277 -297 279 C-296.40832031 279.10699219 -295.81664062 279.21398437 -295.20703125 279.32421875 C-292.71275143 280.08795399 -291.57266298 281.03531772 -289.6875 282.8125 C-286.34621204 285.81387338 -282.96201252 287.89770764 -279 290 C-279 290.66 -279 291.32 -279 292 C-278.02160156 292.29003906 -278.02160156 292.29003906 -277.0234375 292.5859375 C-272.3228602 293.98640448 -267.64159109 295.41208726 -263 297 C-263 297.66 -263 298.32 -263 299 C-262.3709375 299.06058594 -261.741875 299.12117188 -261.09375 299.18359375 C-259.80984375 299.30927734 -259.80984375 299.30927734 -258.5 299.4375 C-257.57445312 299.52773438 -256.64890625 299.61796875 -255.6953125 299.7109375 C-253.58162606 299.93762271 -251.47566726 300.23653439 -249.375 300.5625 C-228.66071098 303.09979243 -206.96267502 299.16828264 -189.8125 286.875 C-188.19329249 285.60223902 -186.5869484 284.3127636 -185 283 C-184.37480469 282.51273437 -183.74960938 282.02546875 -183.10546875 281.5234375 C-180.25978826 279.26627974 -178.15046781 276.90313154 -176 274 C-175.34 274 -174.68 274 -174 274 C-173.72800781 273.25878906 -173.45601562 272.51757812 -173.17578125 271.75390625 C-172.067199 269.15739302 -170.84455152 267.20665499 -169.1875 264.9375 C-163.97241609 257.22991276 -160.56454804 249.31752459 -160.140625 239.9609375 C-160.02339292 237.49255093 -159.78297735 235.10989798 -159.49533081 232.65858459 C-158.85084636 226.26888604 -158.89054681 219.91808809 -158.93408203 213.50170898 C-158.94125617 211.47966822 -158.94842607 209.45762743 -158.95543838 207.43558609 C-158.96379678 205.27857747 -158.9745949 203.12159243 -158.98596573 200.9645977 C-159.00927262 196.43287843 -159.02240768 191.90116324 -159.03366089 187.36940002 C-159.06688226 174.48750065 -159.10817763 161.60566669 -159.17138672 148.72387695 C-159.20627529 141.59629022 -159.22984633 134.46875311 -159.24159515 127.34108979 C-159.24826841 123.58723952 -159.26031816 119.83360025 -159.28662491 116.07983208 C-159.51904423 81.98433318 -158.49581011 49.02569708 -135 22 C-134.34 22 -133.68 22 -133 22 C-132.71125 21.401875 -132.4225 20.80375 -132.125 20.1875 C-129.9579909 15.97387119 -128.01947141 14.33690199 -124 12 C-122.85724609 11.06994141 -122.85724609 11.06994141 -121.69140625 10.12109375 C-108.29763815 -0.4345174 -93.43120544 -4.70568857 -76.95117188 -7.64306641 C-75.26017404 -7.9524056 -73.57473737 -8.29185654 -71.890625 -8.63671875 C-48.79230735 -13.13514802 -21.61549667 -8.84649671 0 0 Z " fill="#102C98" transform="translate(400,96)"/>
<path d="M0 0 C0 0.66 0 1.32 0 2 C0.60457031 2.24105469 1.20914063 2.48210937 1.83203125 2.73046875 C4.45973326 4.26921317 5.2653349 5.64313648 6.6875 8.3125 C7.10386719 9.07175781 7.52023438 9.83101562 7.94921875 10.61328125 C10.33056468 16.02221196 10.14184947 21.43554632 10.12698364 27.23684692 C10.12854363 28.17005229 10.13010362 29.10325765 10.13171089 30.06474197 C10.13570091 33.1930797 10.13253897 36.32136894 10.12939453 39.44970703 C10.13074944 41.69185413 10.13252987 43.93400101 10.13470459 46.17614746 C10.13926775 52.2667732 10.13749407 58.35738202 10.1343255 64.44800806 C10.13179678 70.81542666 10.13414082 77.1828438 10.13571167 83.55026245 C10.13764822 94.92677901 10.13453789 106.30328697 10.12945233 117.67980181 C10.12498247 127.99861518 10.12576247 138.3174173 10.13037109 148.63623047 C10.13571992 160.61801286 10.13771621 172.59978841 10.13475883 184.58157241 C10.13319736 190.92470627 10.13299882 197.26783237 10.13629532 203.61096573 C10.13917659 209.57152328 10.13719359 215.53205951 10.13140106 221.49261475 C10.13007496 223.68443644 10.13046505 225.87625991 10.13266373 228.0680809 C10.13538101 231.05111856 10.13198695 234.03408715 10.12698364 237.01712036 C10.12921436 237.89210745 10.13144509 238.76709454 10.13374341 239.66859639 C10.12274611 243.03011334 10.07048046 245.78855863 9 249 C8.34 249 7.68 249 7 249 C6.896875 249.556875 6.79375 250.11375 6.6875 250.6875 C5.29938302 255.35662074 2.64738883 258.82324198 -1 262 C-1.66 262 -2.32 262 -3 262 C-3.33 262.99 -3.66 263.98 -4 265 C-7.35399849 265.0878954 -10.7076964 265.14068879 -14.0625 265.1875 C-15.47692383 265.22520508 -15.47692383 265.22520508 -16.91992188 265.26367188 C-22.76642736 265.32478517 -26.81287544 264.74104641 -32 262 C-32 261.34 -32 260.68 -32 260 C-33.13645934 259.65134038 -33.13645934 259.65134038 -34.29587746 259.29563713 C-38.62674297 257.22057208 -39.82291978 254.22857539 -41.79032516 249.9709816 C-44.70084248 241.689427 -43.81013206 232.32681209 -43.74462891 223.68310547 C-43.7494911 221.43157276 -43.7569359 219.18004438 -43.76675415 216.92852783 C-43.78549072 210.84175141 -43.76679178 204.75562278 -43.74008989 198.66889715 C-43.71737841 192.2861105 -43.72568213 185.90335381 -43.72958374 179.52053833 C-43.73134684 168.80604113 -43.70938835 158.09185723 -43.67236328 147.37744141 C-43.63434352 136.37215517 -43.62019474 125.36716362 -43.63134766 114.36181641 C-43.6447791 101.06893506 -43.63814258 87.77625075 -43.61314011 74.48337173 C-43.60386939 69.41741646 -43.60209116 64.35154112 -43.6063118 59.28557968 C-43.61008797 53.31819522 -43.59379048 47.35118694 -43.56219101 41.38388824 C-43.55373004 39.19824149 -43.55198755 37.01255648 -43.55757141 34.82690048 C-43.56405296 31.83535371 -43.54575976 28.84491772 -43.52139282 25.85348511 C-43.52895147 24.99588085 -43.53651012 24.13827659 -43.54429781 23.25468433 C-43.42876579 15.19533441 -41.19292859 8.02062372 -35.625 2.0625 C-25.21500649 -7.33080625 -11.62355011 -6.67277877 0 0 Z " fill="#0F2C98" transform="translate(191,100)"/>
<path d="M0 0 C0 0.66 0 1.32 0 2 C0.60457031 2.24105469 1.20914063 2.48210937 1.83203125 2.73046875 C4.45973326 4.26921317 5.2653349 5.64313648 6.6875 8.3125 C7.10386719 9.07175781 7.52023438 9.83101562 7.94921875 10.61328125 C10.33056468 16.02221196 10.14184947 21.43554632 10.12698364 27.23684692 C10.12854363 28.17005229 10.13010362 29.10325765 10.13171089 30.06474197 C10.13570091 33.1930797 10.13253897 36.32136894 10.12939453 39.44970703 C10.13074944 41.69185413 10.13252987 43.93400101 10.13470459 46.17614746 C10.13926775 52.2667732 10.13749407 58.35738202 10.1343255 64.44800806 C10.13179678 70.81542666 10.13414082 77.1828438 10.13571167 83.55026245 C10.13764822 94.92677901 10.13453789 106.30328697 10.12945233 117.67980181 C10.12498247 127.99861518 10.12576247 138.3174173 10.13037109 148.63623047 C10.13571992 160.61801286 10.13771621 172.59978841 10.13475883 184.58157241 C10.13319736 190.92470627 10.13299882 197.26783237 10.13629532 203.61096573 C10.13917659 209.57152328 10.13719359 215.53205951 10.13140106 221.49261475 C10.13007496 223.68443644 10.13046505 225.87625991 10.13266373 228.0680809 C10.13538101 231.05111856 10.13198695 234.03408715 10.12698364 237.01712036 C10.12921436 237.89210745 10.13144509 238.76709454 10.13374341 239.66859639 C10.12274611 243.03011334 10.07048046 245.78855863 9 249 C8.34 249 7.68 249 7 249 C6.896875 249.556875 6.79375 250.11375 6.6875 250.6875 C5.29938302 255.35662074 2.64738883 258.82324198 -1 262 C-1.66 262 -2.32 262 -3 262 C-3.33 262.99 -3.66 263.98 -4 265 C-7.35399849 265.0878954 -10.7076964 265.14068879 -14.0625 265.1875 C-15.47692383 265.22520508 -15.47692383 265.22520508 -16.91992188 265.26367188 C-22.76642736 265.32478517 -26.81287544 264.74104641 -32 262 C-32 261.34 -32 260.68 -32 260 C-33.13645934 259.65134038 -33.13645934 259.65134038 -34.29587746 259.29563713 C-38.62674297 257.22057208 -39.82291978 254.22857539 -41.79032516 249.9709816 C-44.70084248 241.689427 -43.81013206 232.32681209 -43.74462891 223.68310547 C-43.7494911 221.43157276 -43.7569359 219.18004438 -43.76675415 216.92852783 C-43.78549072 210.84175141 -43.76679178 204.75562278 -43.74008989 198.66889715 C-43.71737841 192.2861105 -43.72568213 185.90335381 -43.72958374 179.52053833 C-43.73134684 168.80604113 -43.70938835 158.09185723 -43.67236328 147.37744141 C-43.63434352 136.37215517 -43.62019474 125.36716362 -43.63134766 114.36181641 C-43.6447791 101.06893506 -43.63814258 87.77625075 -43.61314011 74.48337173 C-43.60386939 69.41741646 -43.60209116 64.35154112 -43.6063118 59.28557968 C-43.61008797 53.31819522 -43.59379048 47.35118694 -43.56219101 41.38388824 C-43.55373004 39.19824149 -43.55198755 37.01255648 -43.55757141 34.82690048 C-43.56405296 31.83535371 -43.54575976 28.84491772 -43.52139282 25.85348511 C-43.52895147 24.99588085 -43.53651012 24.13827659 -43.54429781 23.25468433 C-43.4271557 15.08301637 -41.12768799 7.97184493 -35.5 1.9375 C-33.11426987 -0.36689842 -31.32218276 -1.55749615 -28 -2 C-27.34 -1.67 -26.68 -1.34 -26 -1 C-27 2 -27 2 -29.875 3.8125 C-33.34136008 6.23895205 -34.42044534 8.13886639 -36 12 C-36.66 12 -37.32 12 -38 12 C-38.77150248 18.14372803 -39.14388791 24.11678657 -39.12698364 30.30458069 C-39.12854363 31.1968404 -39.13010362 32.08910011 -39.13171089 33.008398 C-39.13567417 35.97444724 -39.13254946 38.94044458 -39.12939453 41.90649414 C-39.13075063 44.04259776 -39.13253175 46.17870114 -39.13470459 48.31480408 C-39.13925374 54.0997536 -39.13749979 59.88468523 -39.1343255 65.66963506 C-39.13178923 71.730395 -39.13414295 77.79115344 -39.13571167 83.85191345 C-39.13752952 94.02766189 -39.13513698 104.20340306 -39.13037109 114.37915039 C-39.12492775 126.13698759 -39.12669321 137.89480744 -39.1321975 149.65264422 C-39.13673782 159.75647793 -39.13737471 169.86030643 -39.13475883 179.96414083 C-39.13320132 185.99494202 -39.13298795 192.02573506 -39.13629532 198.05653572 C-39.13918741 203.72578682 -39.13717369 209.3950156 -39.13140106 215.0642643 C-39.13008072 217.14272271 -39.13045526 219.221183 -39.13266373 221.29964066 C-39.1354037 224.14058665 -39.13195933 226.98146147 -39.12698364 229.82240295 C-39.12921436 230.64118787 -39.13144509 231.45997279 -39.13374341 232.30356938 C-39.0985638 242.68793349 -37.87300499 250.01565842 -30.3515625 257.6796875 C-25.0401976 261.78497827 -19.14985575 261.78790485 -12.63671875 261.53515625 C-6.30329583 260.60317028 -2.57937063 258.13441863 1.45053864 253.23732376 C6.9769331 244.06793117 5.68252835 233.16492362 5.61523438 222.84667969 C5.61873835 220.5889545 5.62440005 218.33123179 5.63204956 216.07351685 C5.64626385 209.96216583 5.62927045 203.85126654 5.60576439 197.73995876 C5.58562332 191.33927537 5.59153648 184.93861013 5.59387207 178.53790283 C5.59381855 167.79470747 5.57421384 157.05172891 5.54199219 146.30859375 C5.50887385 135.26232486 5.49473991 124.21623941 5.50097656 113.16992188 C5.50846528 99.8404865 5.50109054 86.51116811 5.47932434 73.18173981 C5.47114945 68.09574508 5.46844094 63.00979072 5.47001648 57.92378998 C5.47089495 51.93844906 5.45668916 45.95332737 5.43078995 39.96804428 C5.42362457 37.77103869 5.4215463 35.57400979 5.42490768 33.37699509 C5.42861899 30.37973352 5.41388684 27.38311298 5.39440918 24.38592529 C5.39973711 23.51530543 5.40506503 22.64468557 5.41055441 21.74768329 C5.33010733 14.57972662 3.14827224 9.14827224 -2 4 C-9.14770735 -0.85474814 -16.6486284 -0.42766626 -25 0 C-25 -1.32 -25 -2.64 -25 -4 C-15.68722162 -5.82206533 -8.23713454 -4.72872538 0 0 Z " fill="#12267A" transform="translate(191,100)"/>
<path d="M0 0 C0.66 0.33 1.32 0.66 2 1 C2 1.99 2 2.98 2 4 C0.0234375 5.8671875 0.0234375 5.8671875 -2.625 7.875 C-3.54023438 8.58398438 -4.45546875 9.29296875 -5.3984375 10.0234375 C-6.86074447 11.13443949 -8.32372492 12.24456075 -9.7890625 13.3515625 C-18.20068918 19.96391075 -24.10841265 30.16862144 -28 40 C-28.66 40 -29.32 40 -30 40 C-30.18175781 40.72703125 -30.36351562 41.4540625 -30.55078125 42.203125 C-30.80214844 43.20859375 -31.05351562 44.2140625 -31.3125 45.25 C-31.72048828 46.88775391 -31.72048828 46.88775391 -32.13671875 48.55859375 C-32.69441762 50.78181866 -33.25903988 53.00332348 -33.83203125 55.22265625 C-34.09371094 56.24230469 -34.35539063 57.26195312 -34.625 58.3125 C-34.86476562 59.23675781 -35.10453125 60.16101563 -35.3515625 61.11328125 C-36.60023652 66.67213726 -37.12532877 72.07899191 -37.13803101 77.77037048 C-37.14085229 78.41434723 -37.14367357 79.05832398 -37.14658034 79.72181517 C-37.15485219 81.86004753 -37.1562582 83.99822762 -37.15771484 86.13647461 C-37.16238879 87.67803084 -37.1675333 89.2195857 -37.17311096 90.76113892 C-37.18435644 94.07316393 -37.19280791 97.38518013 -37.19923019 100.69721794 C-37.20996307 105.94877793 -37.23022412 111.20027468 -37.25234985 116.45179749 C-37.31408939 131.38295574 -37.36816821 146.31411028 -37.40136719 161.24536133 C-37.41979643 169.49798121 -37.44883725 177.75049489 -37.4893719 186.00303656 C-37.51030704 190.36075915 -37.52587978 194.71834869 -37.52817917 199.07612419 C-37.53034949 203.18437033 -37.5464574 207.29233975 -37.57256889 211.40050125 C-37.5796742 212.89506179 -37.58190639 214.38965619 -37.57846642 215.88422966 C-37.55842604 226.2607882 -38.78166551 235.88028773 -41 246 C-41.66 246 -42.32 246 -43 246 C-43.33 247.65 -43.66 249.3 -44 251 C-45.32 251 -46.64 251 -48 251 C-47.79503906 250.47792969 -47.59007812 249.95585937 -47.37890625 249.41796875 C-45.49654287 244.27524391 -44.5698188 239.52652896 -44.2109375 234.06640625 C-44.09430419 232.37090355 -43.96177125 230.67543739 -43.76296806 228.98759556 C-42.92717274 221.81164781 -42.88510981 214.71941262 -42.93408203 207.50170898 C-42.94125617 205.47966822 -42.94842607 203.45762743 -42.95543838 201.43558609 C-42.96379678 199.27857747 -42.9745949 197.12159243 -42.98596573 194.9645977 C-43.00927262 190.43287843 -43.02240768 185.90116324 -43.03366089 181.36940002 C-43.06688226 168.48750065 -43.10817763 155.60566669 -43.17138672 142.72387695 C-43.20627529 135.59629022 -43.22984633 128.46875311 -43.24159515 121.34108979 C-43.24826841 117.58723952 -43.26031816 113.83360025 -43.28662491 110.07983208 C-43.51904423 75.98433318 -42.49581011 43.02569708 -19 16 C-18.34 16 -17.68 16 -17 16 C-16.566875 15.1028125 -16.566875 15.1028125 -16.125 14.1875 C-13.9579909 9.97387119 -12.01947141 8.33690199 -8 6 C-6.321702 4.68133728 -4.65385233 3.34919532 -3 2 C-2.01 1.34 -1.02 0.68 0 0 Z " fill="#0C2375" transform="translate(284,102)"/>
<path d="M0 0 C1.65128906 -0.01836914 1.65128906 -0.01836914 3.3359375 -0.03710938 C4.398125 -0.03904297 5.4603125 -0.04097656 6.5546875 -0.04296875 C7.50585449 -0.04707764 8.45702148 -0.05118652 9.43701172 -0.05541992 C12.34399728 0.20729131 14.45277449 1.05129754 17.125 2.1875 C18.341875 2.331875 19.55875 2.47625 20.8125 2.625 C21.905625 2.810625 22.99875 2.99625 24.125 3.1875 C25.115 4.6725 25.115 4.6725 26.125 6.1875 C25.465 6.1875 24.805 6.1875 24.125 6.1875 C23.795 6.8475 23.465 7.5075 23.125 8.1875 C20.33263552 7.71214031 17.54115009 7.2323933 14.75 6.75 C13.55890625 6.54793945 13.55890625 6.54793945 12.34375 6.34179688 C6.3515625 5.30078125 6.3515625 5.30078125 4.125 4.1875 C1.87754466 4.06360182 -0.37416342 4.0118715 -2.625 4 C-3.83671875 3.98582031 -5.0484375 3.97164062 -6.296875 3.95703125 C-9.86049206 4.18656554 -12.53772224 4.97901502 -15.875 6.1875 C-18.0078125 6.49609375 -18.0078125 6.49609375 -20 6.625 C-25.69766051 7.1792093 -31.51234624 8.15038802 -36.875 10.1875 C-37.205 11.1775 -37.535 12.1675 -37.875 13.1875 C-39.298125 14.115625 -39.298125 14.115625 -40.75 15.0625 C-44.09194698 17.33502395 -45.12697065 18.61198542 -46.875 22.1875 C-47.20371094 22.8371875 -47.53242188 23.486875 -47.87109375 24.15625 C-52.89266971 34.60407105 -53.16840378 44.93925067 -53.14624023 56.38574219 C-53.15063596 57.898303 -53.15594118 59.41086139 -53.16207886 60.92341614 C-53.17352143 64.16500066 -53.1790341 67.40652032 -53.17996025 70.64812469 C-53.18191662 75.7965832 -53.20005914 80.94490989 -53.22071838 86.09332275 C-53.269711 98.88902145 -53.30065282 111.68475598 -53.32202148 124.48052979 C-53.33864381 134.41577712 -53.36175264 144.35091078 -53.40504223 154.28608251 C-53.42305995 158.55453647 -53.43545962 162.82283623 -53.43374443 167.09133148 C-53.42031886 213.27813771 -53.42031886 213.27813771 -57.875 222.1875 C-58.535 222.1875 -59.195 222.1875 -59.875 222.1875 C-60.205 223.1775 -60.535 224.1675 -60.875 225.1875 C-61.05308588 220.55726714 -60.7906882 216.45513559 -59.88513184 211.90875244 C-58.57365043 204.24866333 -58.58190557 196.64079031 -58.58789062 188.89746094 C-58.58185305 187.29292457 -58.57492547 185.68839135 -58.56718445 184.0838623 C-58.55239611 180.65294225 -58.54357187 177.22207937 -58.53947449 173.79113007 C-58.53271343 168.36071567 -58.51090672 162.93042298 -58.48693848 157.50006104 C-58.43401758 144.99976964 -58.4004476 132.49944088 -58.36717987 119.99908447 C-58.3364527 108.523872 -58.30158764 97.04871239 -58.25086927 85.57356858 C-58.22759227 80.18003636 -58.2137982 74.78658999 -58.20737457 69.39301252 C-58.20142105 66.03619914 -58.18731283 62.67945526 -58.17103004 59.32267761 C-58.16517354 57.77153174 -58.16267777 56.22036881 -58.16386986 54.66921234 C-58.171771 40.28437861 -58.171771 40.28437861 -55.875 33.1875 C-55.60300781 32.24003906 -55.33101563 31.29257813 -55.05078125 30.31640625 C-52.76903034 23.5331015 -49.71078698 18.45726786 -44.875 13.1875 C-44.37484375 12.63320312 -43.8746875 12.07890625 -43.359375 11.5078125 C-31.47256099 -0.07882944 -15.45246282 0.0092419 0 0 Z " fill="#142777" transform="translate(348.875,138.8125)"/>
<path d="M0 0 C2 3 2 3 2 7 C1.34 7 0.68 7 0 7 C-0.0825 7.804375 -0.165 8.60875 -0.25 9.4375 C-1.20196675 13.95934205 -3.01580179 17.84702701 -5 22 C-5.66 22 -6.32 22 -7 22 C-7.0825 22.680625 -7.165 23.36125 -7.25 24.0625 C-8.7336181 29.87333757 -11.71903535 33.9636619 -16 38 C-17.1531799 39.32698452 -18.29826278 40.66102638 -19.4375 42 C-22.0800284 45.05471766 -24.81758415 47.50567406 -28 50 C-28.66 50.86625 -29.32 51.7325 -30 52.625 C-32.23243321 55.27601443 -33.84832681 55.75591848 -37 57 C-38.09166275 58.93330603 -38.09166275 58.93330603 -39 61 C-43.49836961 64.77282613 -50.02478486 70 -56 70 C-56 70.66 -56 71.32 -56 72 C-57.95649397 72.83764268 -59.91525556 73.66999059 -61.875 74.5 C-63.51082031 75.19609375 -63.51082031 75.19609375 -65.1796875 75.90625 C-68 77 -68 77 -70 77 C-70 77.66 -70 78.32 -70 79 C-70.82407349 79.21148682 -70.82407349 79.21148682 -71.66479492 79.42724609 C-74.17325921 80.07307317 -76.68037629 80.72398903 -79.1875 81.375 C-80.05181641 81.59671875 -80.91613281 81.8184375 -81.80664062 82.046875 C-82.64775391 82.26601563 -83.48886719 82.48515625 -84.35546875 82.7109375 C-85.12528076 82.90993652 -85.89509277 83.10893555 -86.68823242 83.31396484 C-89.04583066 83.96749651 -89.04583066 83.96749651 -91.40063477 85.01123047 C-101.21331643 88.74386508 -112.66468741 88.32043692 -123.03320312 88.26074219 C-125.26199095 88.24994189 -127.4899851 88.26075189 -129.71875 88.2734375 C-139.67648032 88.28393969 -148.56449035 87.32489388 -158 84 C-159.93706153 83.46515468 -161.87420214 82.9305773 -163.81274414 82.40112305 C-173.04737359 79.84284526 -181.4574329 76.31480463 -190 72 C-190 71.34 -190 70.68 -190 70 C-190.68707031 69.9278125 -191.37414062 69.855625 -192.08203125 69.78125 C-195.85172454 68.7719613 -198.59489054 66.78471464 -201.6875 64.5 C-202.29891846 64.0565625 -202.91033691 63.613125 -203.5402832 63.15625 C-208.2934527 59.65371819 -212.71082374 55.86040119 -217.01171875 51.8125 C-219.07099988 49.84389679 -219.07099988 49.84389679 -222 48 C-222.6875 44.875 -222.6875 44.875 -223 42 C-219.74777371 43.41432357 -217.72847068 45.10945162 -215.3125 47.6875 C-208.04864684 55.17056517 -208.04864684 55.17056517 -199 60 C-198.2265625 60.86625 -198.2265625 60.86625 -197.4375 61.75 C-193.78165846 65.12462296 -189.46356275 66.87449393 -185 69 C-183.35353839 69.85295499 -181.70769462 70.70710376 -180.0625 71.5625 C-171.94311752 75.57826877 -163.75078634 78.18920213 -154.9375 80.1875 C-154.20595703 80.35451416 -153.47441406 80.52152832 -152.72070312 80.69360352 C-142.5446858 82.89440513 -132.51125535 83.15854011 -122.125 83.125 C-120.93519531 83.12886719 -119.74539062 83.13273437 -118.51953125 83.13671875 C-107.65312752 83.1248429 -97.22057429 82.7632312 -86.75 79.6875 C-86.01265625 79.48705078 -85.2753125 79.28660156 -84.515625 79.08007812 C-79.9841568 77.7916413 -75.93487497 76.08756405 -71.76416016 73.90356445 C-69.66931148 72.83062854 -67.53114345 72.03070757 -65.3125 71.25 C-50.53182349 65.41909092 -37.62013841 54.84334126 -26.4375 43.75 C-25.85363525 43.17169434 -25.26977051 42.59338867 -24.66821289 41.99755859 C-21.29588439 38.56762132 -18.55388429 35.10269153 -16 31 C-15.4121875 30.09378906 -14.824375 29.18757813 -14.21875 28.25390625 C-12.4666722 25.5103117 -10.73039597 22.75731321 -9 20 C-8.59265625 19.36835938 -8.1853125 18.73671875 -7.765625 18.0859375 C-5.23875745 13.98463709 -3.92955288 9.85077678 -2.7109375 5.234375 C-2 3 -2 3 0 0 Z " fill="#101F6A" transform="translate(287,365)"/>
<path d="M0 0 C-1 3 -1 3 -3.875 4.8125 C-7.34136008 7.23895205 -8.42044534 9.13886639 -10 13 C-10.66 13 -11.32 13 -12 13 C-12.79179145 19.26398365 -13.14179696 25.3525846 -13.12025452 31.66212463 C-13.12110894 32.59269729 -13.12196337 33.52326995 -13.12284368 34.48204178 C-13.12448115 37.57732199 -13.11900566 40.67254711 -13.11352539 43.76782227 C-13.11324312 45.99572244 -13.11340204 48.22362271 -13.1139679 50.45152283 C-13.11425431 56.48386353 -13.10838278 62.51618426 -13.10139394 68.54852033 C-13.09513444 74.85859402 -13.09455455 81.16866819 -13.09336853 87.47874451 C-13.09061552 98.06469053 -13.08437314 108.65063003 -13.07543945 119.23657227 C-13.06625028 130.136637 -13.05917681 141.03669975 -13.05493164 151.93676758 C-13.05453756 152.94581231 -13.05453756 152.94581231 -13.05413551 153.97524179 C-13.0528304 157.35020617 -13.05156671 160.72517056 -13.05032361 164.10013497 C-13.0399691 192.06676172 -13.02229192 220.03338041 -13 248 C-13.66 247.67 -14.32 247.34 -15 247 C-14.67 246.01 -14.34 245.02 -14 244 C-14.66 244 -15.32 244 -16 244 C-16.33 244.99 -16.66 245.98 -17 247 C-17.09132306 217.86961058 -17.16207616 188.73923517 -17.20426132 159.60873113 C-17.20926392 156.16672546 -17.21444123 152.72472008 -17.21972656 149.28271484 C-17.2207758 148.59749655 -17.22182505 147.91227826 -17.22290608 147.20629577 C-17.2402938 136.12291434 -17.27182242 125.0396162 -17.30861118 113.95628412 C-17.3460662 102.57701227 -17.36794621 91.19780203 -17.37635398 79.81846464 C-17.38156532 73.42968096 -17.39380032 67.04108598 -17.42292023 60.65236282 C-17.4501202 54.6359747 -17.45843559 48.61985259 -17.45243073 42.60340881 C-17.4535289 40.39839099 -17.4614552 38.19336405 -17.4768219 35.98839951 C-17.49682116 32.9700211 -17.49190266 29.95263766 -17.48101807 26.93423462 C-17.49266943 26.06844493 -17.5043208 25.20265523 -17.51632524 24.31062949 C-17.44579495 17.03910733 -15.54661469 10.40085885 -11.1484375 4.52734375 C-10.56320313 4.00269531 -9.97796875 3.47804688 -9.375 2.9375 C-8.78460938 2.38964844 -8.19421875 1.84179688 -7.5859375 1.27734375 C-4.69466109 -1.05134439 -3.47603421 -1.04281026 0 0 Z " fill="#03093A" transform="translate(165,99)"/>
<path d="M0 0 C0.66 0 1.32 0 2 0 C2.02721176 1.89575251 2.04649136 3.79161979 2.0625 5.6875 C2.07410156 6.74324219 2.08570313 7.79898437 2.09765625 8.88671875 C2.00840327 11.73210373 1.59970025 14.22815711 1 17 C1 17.99 1 18.98 1 20 C0.56306152 21.49218614 0.079336 22.97107057 -0.4375 24.4375 C-1.43097472 27.27394232 -2.31328396 30.0731229 -3 33 C-3.66 33 -4.32 33 -5 33 C-5.10957031 33.64066406 -5.21914063 34.28132813 -5.33203125 34.94140625 C-6.32460328 40.3561691 -7.62458653 45.03322639 -10 50 C-10.66 50 -11.32 50 -12 50 C-12.0825 50.66 -12.165 51.32 -12.25 52 C-14.10027558 59.40110234 -18.58508692 66.84434976 -23 73 C-23.66 73 -24.32 73 -25 73 C-25.268125 73.7425 -25.53625 74.485 -25.8125 75.25 C-26.95276751 77.89061949 -28.09380306 79.85552844 -30 82 C-30.66 82 -31.32 82 -32 82 C-32.04125 82.721875 -32.0825 83.44375 -32.125 84.1875 C-33.14974041 87.48130847 -34.67195965 88.62378685 -37.375 90.6640625 C-39.09320137 92.07662228 -40.37467756 93.56878763 -41.75 95.3125 C-42.4925 96.199375 -43.235 97.08625 -44 98 C-44.66 98 -45.32 98 -46 98 C-46.20625 98.55171875 -46.4125 99.1034375 -46.625 99.671875 C-48.51211903 102.86711063 -51.15686401 104.94330476 -54 107.25 C-54.81984375 107.93835938 -54.81984375 107.93835938 -55.65625 108.640625 C-59.73549107 112 -59.73549107 112 -62 112 C-62.226875 112.598125 -62.45375 113.19625 -62.6875 113.8125 C-64.35609042 116.59348403 -66.1283832 117.5641916 -69 119 C-69.66 119 -70.32 119 -71 119 C-71 119.66 -71 120.32 -71 121 C-72.45537568 121.83848804 -73.91440373 122.67063934 -75.375 123.5 C-76.59316406 124.19609375 -76.59316406 124.19609375 -77.8359375 124.90625 C-80 126 -80 126 -82 126 C-82 126.66 -82 127.32 -82 128 C-90.261959 132.59225513 -90.261959 132.59225513 -95 132 C-95 131.34 -95 130.68 -95 130 C-93.33862305 128.79833984 -93.33862305 128.79833984 -91.01171875 127.4609375 C-89.74255615 126.72037109 -89.74255615 126.72037109 -88.44775391 125.96484375 C-87.53687012 125.44019531 -86.62598633 124.91554688 -85.6875 124.375 C-68.74058118 114.39122834 -53.62990785 102.57584368 -40.375 88 C-39.61960937 87.175 -38.86421875 86.35 -38.0859375 85.5 C-35.92631023 83.05098363 -35.92631023 83.05098363 -34.3515625 80.1875 C-33.68253906 79.1046875 -33.68253906 79.1046875 -33 78 C-32.34 78 -31.68 78 -31 78 C-30.72414063 77.2575 -30.44828125 76.515 -30.1640625 75.75 C-29.09436723 73.22293467 -27.9406592 71.23915506 -26.375 69 C-23.75721029 65.15068853 -21.21832856 61.25911944 -18.75 57.3125 C-18.08484375 56.25675781 -17.4196875 55.20101562 -16.734375 54.11328125 C-15.05302507 51.09518239 -14.01959379 48.289715 -13 45 C-12.22293952 43.16042825 -11.43080041 41.32716527 -10.625 39.5 C-7.8114236 32.81361845 -5.84094073 26.00821642 -4 19 C-3.70996094 17.90816406 -3.41992188 16.81632812 -3.12109375 15.69140625 C-1.77278777 10.47404832 -0.60863571 5.35599422 0 0 Z " fill="#0F1E69" transform="translate(503,289)"/>
<path d="M0 0 C0.89460938 0.35578125 1.78921875 0.7115625 2.7109375 1.078125 C5.1432903 2.04561547 7.57262718 3.02009745 10 4 C10 4.66 10 5.32 10 6 C10.99 6.12375 10.99 6.12375 12 6.25 C19.40110234 8.10027558 26.84434976 12.58508692 33 17 C33 17.66 33 18.32 33 19 C33.556875 19.268125 34.11375 19.53625 34.6875 19.8125 C40.01022302 22.5457902 44.2471651 25.77949456 48.625 29.8125 C49.19734375 30.32103516 49.7696875 30.82957031 50.359375 31.35351562 C53.88668059 34.58961343 56.10760363 37.5105916 58 42 C53.04249886 41.26555539 50.0589383 38.06593954 46.63671875 34.62109375 C33.56518157 21.62701753 17.48420196 13.20272301 0.77587891 5.79589844 C-0.67891661 5.14390045 -2.11748454 4.45580385 -3.55078125 3.7578125 C-15.11682853 -1.54243652 -29.39194372 -3.20016671 -42.015625 -3.82421875 C-44 -4 -44 -4 -45 -5 C-46.62379286 -5.14553745 -48.25340568 -5.22723334 -49.8828125 -5.28125 C-51.38714844 -5.33732422 -51.38714844 -5.33732422 -52.921875 -5.39453125 C-53.97890625 -5.42933594 -55.0359375 -5.46414062 -56.125 -5.5 C-62.48324881 -5.71405576 -68.72134593 -5.93280667 -75 -7 C-75 -7.33 -75 -7.66 -75 -8 C-50.88543199 -13.20391448 -22.74368283 -9.30822541 0 0 Z " fill="#0A1758" transform="translate(400,96)"/>
<path d="M0 0 C0.66 0.33 1.32 0.66 2 1 C2 1.99 2 2.98 2 4 C0.0234375 5.8671875 0.0234375 5.8671875 -2.625 7.875 C-3.54023438 8.58398438 -4.45546875 9.29296875 -5.3984375 10.0234375 C-6.86074447 11.13443949 -8.32372492 12.24456075 -9.7890625 13.3515625 C-18.20068918 19.96391075 -24.10841265 30.16862144 -28 40 C-28.66 40 -29.32 40 -30 40 C-30.18175781 40.72703125 -30.36351562 41.4540625 -30.55078125 42.203125 C-30.80214844 43.20859375 -31.05351562 44.2140625 -31.3125 45.25 C-31.72242188 46.90515625 -31.72242188 46.90515625 -32.140625 48.59375 C-32.67278613 50.70304322 -33.22162985 52.8082971 -33.796875 54.90625 C-37.50301336 68.67190675 -38.301237 82.48667327 -38.4140625 96.65625 C-38.43284118 98.18038908 -38.45241913 99.7045185 -38.4727478 101.2286377 C-38.52336941 105.18050348 -38.56336217 109.13240273 -38.60089111 113.08441162 C-38.64137796 117.14098908 -38.69226275 121.19743591 -38.7421875 125.25390625 C-38.83811439 133.16918051 -38.92277629 141.08452123 -39 149 C-39.33 149 -39.66 149 -40 149 C-40 137.12 -40 125.24 -40 113 C-40.66 113 -41.32 113 -42 113 C-43.9926004 77.99514085 -43.27495878 43.92190094 -19 16 C-18.34 16 -17.68 16 -17 16 C-16.566875 15.1028125 -16.566875 15.1028125 -16.125 14.1875 C-13.9579909 9.97387119 -12.01947141 8.33690199 -8 6 C-6.321702 4.68133728 -4.65385233 3.34919532 -3 2 C-2.01 1.34 -1.02 0.68 0 0 Z " fill="#0D1A61" transform="translate(284,102)"/>
<path d="M0 0 C0.33 0 0.66 0 1 0 C1 1.98 1 3.96 1 6 C1.66 6 2.32 6 3 6 C2.03644647 16.55808656 2.03644647 16.55808656 1 21 C0.34 21 -0.32 21 -1 21 C-1.0928125 21.99902344 -1.185625 22.99804688 -1.28125 24.02734375 C-1.89129412 28.24575647 -3.54466988 31.80908495 -5.5 35.5625 C-5.85602295 36.25504883 -6.2120459 36.94759766 -6.57885742 37.66113281 C-12.97888468 49.88380418 -20.3679542 60.13690063 -30 70 C-30.64324219 70.70511719 -31.28648437 71.41023438 -31.94921875 72.13671875 C-40.90229117 81.71126257 -52.32705252 89.19154133 -64 95 C-64.77472656 95.41121094 -65.54945313 95.82242188 -66.34765625 96.24609375 C-71.59818339 99 -71.59818339 99 -75 99 C-75 98.34 -75 97.68 -75 97 C-75.99 96.67 -76.98 96.34 -78 96 C-77.48203857 95.764021 -76.96407715 95.52804199 -76.43041992 95.28491211 C-63.16800547 89.21078222 -51.08107592 83.24689921 -40.3359375 73.1796875 C-38.25918759 71.24185062 -36.12624859 69.43309666 -33.9375 67.625 C-27.26692478 61.8203818 -21.60747078 54.52553561 -17 47 C-16.47921875 46.19820313 -15.9584375 45.39640625 -15.421875 44.5703125 C-10.52029259 36.70646942 -7.44707289 28.63382031 -4.61035156 19.87060547 C-4.0659927 18.20225442 -3.48652305 16.54545319 -2.90234375 14.890625 C-1.94048373 11.8093418 -1.37090199 8.81294139 -0.875 5.625 C-0.70742188 4.56539063 -0.53984375 3.50578125 -0.3671875 2.4140625 C-0.18542969 1.21910156 -0.18542969 1.21910156 0 0 Z " fill="#0C1A5D" transform="translate(453,280)"/>
<path d="M0 0 C0.33 0 0.66 0 1 0 C2.28445384 7.88905298 2.14825262 15.78774402 2.14526367 23.7565918 C2.14825939 25.35242287 2.15166286 26.94825323 2.15544128 28.54408264 C2.16424476 32.86252977 2.16661789 37.18095706 2.16725707 41.4994123 C2.16796979 44.2031657 2.17010834 46.90691412 2.17275429 49.61066628 C2.18199651 59.05970197 2.18609069 68.5087236 2.18530273 77.95776367 C2.18470265 86.73841717 2.19524375 95.5190091 2.2110464 104.29964703 C2.22416363 111.8600368 2.22948486 119.42040655 2.22884732 126.9808076 C2.22859351 131.48652712 2.23137969 135.99219191 2.24202538 140.49790001 C2.25177671 144.74067093 2.25173782 148.98333558 2.24450874 153.22611046 C2.2434715 154.773551 2.24577394 156.3209984 2.2518692 157.86842728 C2.33453872 180.33092256 2.33453872 180.33092256 -1 187 C-1.66 187 -2.32 187 -3 187 C-3.33 187.99 -3.66 188.98 -4 190 C-4.17804822 185.3707464 -3.91607321 181.26872991 -3.01112366 176.72323608 C-1.69788597 169.05301122 -1.69923101 161.4321758 -1.69702148 153.67822266 C-1.68934334 152.07044048 -1.6807938 150.46266226 -1.67144775 148.85488892 C-1.65329445 145.41742149 -1.64117669 141.98000706 -1.63390923 138.54249954 C-1.62234507 133.10423241 -1.59685844 127.66608261 -1.56959534 122.22787476 C-1.52809211 113.6293615 -1.49560619 105.03084245 -1.46712118 96.43227708 C-1.41598742 81.0207708 -1.35388158 65.60931387 -1.28178078 50.19789159 C-1.25691483 44.79378808 -1.23745927 39.38970008 -1.22239864 33.98556066 C-1.21218194 30.62668011 -1.19803675 27.26782397 -1.18292236 23.90896225 C-1.17677772 22.35374782 -1.17231233 20.7985257 -1.16966438 19.24330139 C-1.16583906 17.11777321 -1.15600973 14.9923518 -1.14476013 12.86685181 C-1.14090522 11.67857599 -1.1370503 10.49030018 -1.13307858 9.26601601 C-1.00391492 6.09608002 -0.59453446 3.11321798 0 0 Z " fill="#0A1862" transform="translate(292,174)"/>
<path d="M0 0 C0 0.66 0 1.32 0 2 C0.60400739 2.24735808 1.20801478 2.49471617 1.83032542 2.74956995 C5.76795253 5.01890901 7.36304436 8.88204106 9 13 C9.62783004 16.32318963 9.63435432 19.51576287 9.56330872 22.88990784 C9.56349729 23.84498181 9.56368586 24.80005578 9.56388015 25.78407139 C9.55843385 28.96284679 9.51714215 32.14010757 9.47583008 35.31860352 C9.46455007 37.6056066 9.45549279 39.89262156 9.44848633 42.17964172 C9.42323247 48.37342599 9.36694842 54.56658309 9.3050406 60.76009488 C9.24558194 67.23822952 9.21473214 73.71649924 9.18083191 80.19480896 C9.1201116 91.06338153 9.04180936 101.9316965 8.94995117 112.80004883 C8.85541422 123.99106932 8.77153421 135.18208664 8.7019043 146.37329102 C8.69545338 147.40921871 8.69545338 147.40921871 8.68887214 148.46607424 C8.66736122 151.930942 8.64605896 155.39581101 8.62486041 158.8606807 C8.44891844 187.57404844 8.23608119 216.28706724 8 245 C7.67 245 7.34 245 7 245 C6.99853344 243.8383989 6.99706688 242.67679781 6.99555588 241.47999668 C6.95983158 213.88800216 6.90355823 186.29611155 6.82207905 158.70421261 C6.81206194 155.30598267 6.80221775 151.90775224 6.79248047 148.50952148 C6.7905391 147.83301273 6.78859772 147.15650397 6.78659752 146.45949494 C6.75560088 135.51451736 6.73860341 124.56956074 6.72680578 113.62454755 C6.71438209 102.38873364 6.68655698 91.15302876 6.64538693 79.91727728 C6.62275643 73.60849573 6.60709029 67.29987073 6.60811615 60.991045 C6.6088618 55.05091698 6.59094846 49.11113523 6.55883217 43.1710968 C6.55032552 40.9931032 6.54858841 38.81507079 6.55419731 36.63706779 C6.56084697 33.65767165 6.54289273 30.67937409 6.51898193 27.7000885 C6.52674235 26.84305881 6.53450277 25.98602912 6.54249835 25.10302883 C6.43944039 17.82308221 4.02025006 12.36708344 0.3125 6.1875 C-5.32662224 0.85319518 -10.9042817 -0.2422566 -18.5625 -0.25 C-20.70900883 -0.18639974 -22.85535934 -0.10982513 -25 0 C-25 -1.32 -25 -2.64 -25 -4 C-15.68722162 -5.82206533 -8.23713454 -4.72872538 0 0 Z " fill="#060D43" transform="translate(191,100)"/>
<path d="M0 0 C-0.66 0 -1.32 0 -2 0 C-1.505 1.485 -1.505 1.485 -1 3 C-2.24663331 3.50833591 -3.49749387 4.00631145 -4.75 4.5 C-5.79414063 4.91765625 -5.79414063 4.91765625 -6.859375 5.34375 C-9 6 -9 6 -13 6 C-13 6.66 -13 7.32 -13 8 C-13.66008057 8.17128418 -14.32016113 8.34256836 -15.00024414 8.51904297 C-18.02122429 9.30348614 -21.04186402 10.08923262 -24.0625 10.875 C-25.10083984 11.14441406 -26.13917969 11.41382813 -27.20898438 11.69140625 C-28.73168945 12.08779297 -28.73168945 12.08779297 -30.28515625 12.4921875 C-31.2810376 12.75112793 -32.27691895 13.01006836 -33.30297852 13.27685547 C-35.43327268 13.84804505 -37.54824029 14.47638163 -39.65625 15.125 C-43.90269698 16.23621977 -48.07332551 16.72200657 -52.4375 17.125 C-53.33476807 17.20919189 -54.23203613 17.29338379 -55.15649414 17.38012695 C-62.41800282 17.99548791 -69.65170695 18.18191573 -76.9375 18.1875 C-77.9493335 18.18830566 -78.96116699 18.18911133 -80.00366211 18.18994141 C-92.82664914 18.09274029 -92.82664914 18.09274029 -95.65600586 15.45776367 C-96.09952393 14.97670166 -96.54304199 14.49563965 -97 14 C-95.07305298 13.97812622 -95.07305298 13.97812622 -93.10717773 13.95581055 C-88.27049036 13.89716066 -83.43423668 13.81994149 -78.59790039 13.73754883 C-76.51789469 13.70460938 -74.43780625 13.67648475 -72.35766602 13.65356445 C-60.21104144 13.51616581 -48.80576363 12.99492145 -37 10 C-35.11897583 9.54923096 -35.11897583 9.54923096 -33.19995117 9.08935547 C-24.95927302 7.08444064 -17.13375398 4.32370947 -9.25683594 1.19824219 C-8.48629883 0.89950195 -7.71576172 0.60076172 -6.921875 0.29296875 C-6.23706055 0.0199292 -5.55224609 -0.25311035 -4.84667969 -0.53442383 C-3 -1 -3 -1 0 0 Z " fill="#0E1D6A" transform="translate(407,422)"/>
<path d="M0 0 C7.25117709 3.9810384 11.45915858 9.53623952 14.875 16.89453125 C16.62219724 20.16445942 18.93028275 22.932851 21.25 25.8125 C23.63079649 28.78849561 25.81044453 31.88154221 28 35 C27.34 35.66 26.68 36.32 26 37 C18.82450332 31.53295491 14.3189458 24.81848686 10 17 C6.73800268 11.18852355 3.59956064 5.79288997 -2.9140625 3.25390625 C-10.247737 1.2010437 -16.15042709 1.45289974 -23 5 C-27.60939228 7.77134949 -30.3949394 10.20120416 -33 15 C-33.66 15 -34.32 15 -35 15 C-35.6875 13.24609375 -35.6875 13.24609375 -36 11 C-27.83968616 -2.50209822 -14.05770403 -6.28398331 0 0 Z " fill="#0E1C67" transform="translate(75,339)"/>
<path d="M0 0 C2.58015461 0.36542962 3.73512026 0.70183694 5.4921875 2.6796875 C5.94851563 3.40414062 6.40484375 4.12859375 6.875 4.875 C7.38417969 5.68324219 7.89335937 6.49148437 8.41796875 7.32421875 C11.07399792 11.81651501 13.57380582 16.38006137 16 21 C16.515625 21.969375 17.03125 22.93875 17.5625 23.9375 C19.88557233 28.8866541 21.95453818 33.93081201 24 39 C24.35320312 39.84304687 24.70640625 40.68609375 25.0703125 41.5546875 C27.79417552 48.43941213 29.2779627 55.47025752 30.69360352 62.71508789 C31.14580371 66.68158484 31.14580371 66.68158484 33 70 C33.16407956 74.84034716 32.95348275 79.23258627 32 84 C31.34 84 30.68 84 30 84 C29.87995605 83.2157666 29.75991211 82.4315332 29.63623047 81.62353516 C26.89875772 64.03726853 24.15210164 46.87792409 15.94799805 30.87670898 C14.22329745 27.46239699 12.75716983 23.93060134 11.24609375 20.41796875 C10.03869036 18.07507628 8.86655035 16.80713761 7 15 C5.91296473 13.01775922 4.99769576 10.99493068 4.0625 8.9375 C3.09339198 6.92662534 3.09339198 6.92662534 1.375 5.5 C0 4 0 4 0 0 Z " fill="#0E1D66" transform="translate(474,158)"/>
<path d="M0 0 C0 0.66 0 1.32 0 2 C-14.49724893 9.37579331 -29.59847982 9.45606597 -45.5 9.5625 C-48.32319542 9.58642948 -51.1460955 9.61465315 -53.96911621 9.65428162 C-55.70867565 9.67831485 -57.44839061 9.6934352 -59.18811035 9.69789124 C-64.18251216 9.76213455 -68.23870466 10.51455768 -73 12 C-75.4375 11.625 -75.4375 11.625 -77 11 C-76.34 11 -75.68 11 -75 11 C-75 10.01 -75 9.02 -75 8 C-72.56672949 5.29789902 -71.0671817 5.00579429 -67.41918945 4.69116211 C-65.98366744 4.70515306 -64.54824344 4.73488553 -63.11328125 4.77734375 C-62.33800583 4.78633194 -61.56273041 4.79532013 -60.76396179 4.80458069 C-58.27968222 4.83454512 -55.7963793 4.88413776 -53.3125 4.9375 C-43.72465304 5.12827908 -34.25614482 5.24053585 -24.71484375 4.140625 C-24.03521072 4.06347763 -23.3555777 3.98633026 -22.65534973 3.90684509 C-17.32096491 3.21556727 -12.48741983 1.71705687 -7.515625 -0.29296875 C-4.62198085 -1.10624451 -2.86259722 -0.80832331 0 0 Z " fill="#091865" transform="translate(377,378)"/>
<path d="M0 0 C1.32 0 2.64 0 4 0 C0.27933312 13.52969775 -11.21421912 24.61486987 -22 33 C-27.43207127 36 -27.43207127 36 -30 36 C-30 36.66 -30 37.32 -30 38 C-30.85464844 38.34933594 -31.70929688 38.69867188 -32.58984375 39.05859375 C-33.69457031 39.51363281 -34.79929688 39.96867187 -35.9375 40.4375 C-37.03964844 40.88996094 -38.14179688 41.34242188 -39.27734375 41.80859375 C-41.86568916 42.74424608 -41.86568916 42.74424608 -43 44 C-47.52642225 44.15088074 -51.58300512 44.10424872 -56 43 C-56 42.67 -56 42.34 -56 42 C-55.45214844 41.85304688 -54.90429688 41.70609375 -54.33984375 41.5546875 C-41.45799434 37.91006669 -30.4337854 33.5271038 -20 25 C-19.37222656 24.51144531 -18.74445313 24.02289063 -18.09765625 23.51953125 C-15.25671384 21.26205867 -13.14848221 18.90045098 -11 16 C-10.34 16 -9.68 16 -9 16 C-8.73316406 15.27167969 -8.46632812 14.54335938 -8.19140625 13.79296875 C-7.01267785 11.02972021 -5.64194609 8.77913082 -3.9375 6.3125 C-1.8177976 3.24499911 -1.8177976 3.24499911 0 0 Z " fill="#0E1D64" transform="translate(235,354)"/>
<path d="M0 0 C11.16030446 4.75526016 18.22119401 22.52962227 22.83984375 33.06640625 C30.1988862 51.6746247 30.1988862 51.6746247 30.0625 60.8125 C30.05347656 61.60269531 30.04445313 62.39289063 30.03515625 63.20703125 C30.02355469 63.79871094 30.01195312 64.39039063 30 65 C28.515 65.495 28.515 65.495 27 66 C26.82609741 65.16807129 26.82609741 65.16807129 26.64868164 64.31933594 C26.12075566 61.79605555 25.59163973 59.27302612 25.0625 56.75 C24.88009766 55.87730469 24.69769531 55.00460938 24.50976562 54.10546875 C24.33251953 53.26113281 24.15527344 52.41679687 23.97265625 51.546875 C23.72914429 50.38430176 23.72914429 50.38430176 23.48071289 49.19824219 C23.32207764 48.47282227 23.16344238 47.74740234 23 47 C22.85618896 46.2668457 22.71237793 45.53369141 22.56420898 44.77832031 C22.37802002 44.19147461 22.19183105 43.60462891 22 43 C21.34 42.67 20.68 42.34 20 42 C19.39453125 40.20703125 19.39453125 40.20703125 18.8125 37.8125 C16.03565958 28.02343629 10.99110652 18.90148478 5.06640625 10.671875 C4 9 4 9 4 7 C3.01 6.67 2.02 6.34 1 6 C0.67 4.02 0.34 2.04 0 0 Z " fill="#0E1B68" transform="translate(427,181)"/>
<path d="M0 0 C0.66 0 1.32 0 2 0 C2 0.99 2 1.98 2 3 C3.30973998 4.3565164 4.64802142 5.68557638 6 7 C6.86625 8.4540625 6.86625 8.4540625 7.75 9.9375 C10.70610707 13.96109018 13.26042175 16.31339333 18 18 C24.93977295 19.01875254 31.84622161 19.31190639 38.0625 15.6875 C42.93945037 11.8542909 45.47886825 6.55637664 48 1 C48.66 1.66 49.32 2.32 50 3 C48.3083936 9.63630202 46.2236458 14.45037301 41 19 C40.34 19 39.68 19 39 19 C38.505 20.485 38.505 20.485 38 22 C34.64600151 22.0878954 31.2923036 22.14068879 27.9375 22.1875 C26.99455078 22.21263672 26.05160156 22.23777344 25.08007812 22.26367188 C19.23357264 22.32478517 15.18712456 21.74104641 10 19 C10 18.34 10 17.68 10 17 C9.278125 16.855625 8.55625 16.71125 7.8125 16.5625 C3.51711131 14.17617295 1.80131498 10.48077102 0 6 C-0.3125 2.4375 -0.3125 2.4375 0 0 Z " fill="#0F1F68" transform="translate(149,343)"/>
<path d="M0 0 C-1 3 -1 3 -3.875 4.8125 C-7.34136008 7.23895205 -8.42044534 9.13886639 -10 13 C-10.66 13 -11.32 13 -12 13 C-12.80283452 19.44838969 -13.19501694 25.79080995 -13.31640625 32.28515625 C-13.33718735 33.22685165 -13.35796844 34.16854706 -13.37937927 35.13877869 C-13.44416778 38.11328645 -13.50342701 41.0878738 -13.5625 44.0625 C-13.60575265 46.09310681 -13.64936896 48.12370591 -13.69335938 50.15429688 C-13.79977543 55.10278541 -13.90123666 60.05135306 -14 65 C-19.51662884 59.48337116 -17.25755119 44.95545184 -17.29516602 37.4140625 C-17.30672265 35.80459833 -17.32723236 34.19517357 -17.35668945 32.5859375 C-17.54559316 22.21839545 -17.63846767 13.19440936 -11.1484375 4.52734375 C-10.56320313 4.00269531 -9.97796875 3.47804688 -9.375 2.9375 C-8.78460938 2.38964844 -8.19421875 1.84179688 -7.5859375 1.27734375 C-4.69466109 -1.05134439 -3.47603421 -1.04281026 0 0 Z " fill="#030D3C" transform="translate(165,99)"/>
<path d="M0 0 C0.66 0 1.32 0 2 0 C2.75 1.75 2.75 1.75 3 4 C1.66666667 5.33333333 0.33333333 6.66666667 -1 8 C-4.47997699 15.08423888 -5.34143354 22.09516864 -3.23828125 29.78515625 C-0.85833817 36.17243432 1.73527647 39.77231899 7.6875 43.125 C11 45 11 45 12 47 C1.89517201 45.83271815 1.89517201 45.83271815 -1.6875 42.5 C-3 40 -3 40 -3 38 C-3.66 38 -4.32 38 -5 38 C-8.98922537 28.31188124 -10.67486857 20.13580029 -7 10 C-5.01395761 6.4878978 -2.87044759 2.87044759 0 0 Z " fill="#0D1A5D" transform="translate(297,389)"/>
<path d="M0 0 C19.75828026 2.02649028 37.98561607 19.47746225 51 33 C50.34 33.66 49.68 34.32 49 35 C48.5875 34.54625 48.175 34.0925 47.75 33.625 C46.10797321 31.93366137 46.10797321 31.93366137 44.125 31.125 C41.21696647 29.58545284 39.32412974 27.32412974 37 25 C35.74367568 24.08393018 34.47237244 23.1880784 33.1875 22.3125 C32.135625 21.549375 31.08375 20.78625 30 20 C30 19.34 30 18.68 30 18 C29.278125 17.731875 28.55625 17.46375 27.8125 17.1875 C25.00233617 16.00098638 22.51583443 14.72514361 20 13 C20 12.34 20 11.68 20 11 C19.32453125 10.90460938 18.6490625 10.80921875 17.953125 10.7109375 C14.29344811 9.82990417 11.09392151 8.30389835 7.75 6.625 C7.11320312 6.32078125 6.47640625 6.0165625 5.8203125 5.703125 C4.17122489 4.88208989 2.58001218 3.94718008 1 3 C0.67 2.01 0.34 1.02 0 0 Z " fill="#0F1E6B" transform="translate(376,145)"/>
<path d="M0 0 C0.33 0 0.66 0 1 0 C1.02578125 0.60585938 1.0515625 1.21171875 1.078125 1.8359375 C2.18846407 18.23867383 12.28256257 30.69949848 22.4375 42.9375 C24 45 24 45 24 47 C21.21788056 46.62403791 19.4120716 46.32681541 17.1875 44.5625 C16 43 16 43 16 41 C15.34 41 14.68 41 14 41 C10 35.58823529 10 35.58823529 10 33 C9.34 33 8.68 33 8 33 C6.70144393 30.79547458 5.41111805 28.58676704 4.125 26.375 C3.76019531 25.75753906 3.39539062 25.14007813 3.01953125 24.50390625 C-0.29242327 18.78325753 -2.4619321 14.00528723 -1.6875 7.25 C-1.58824219 6.30640625 -1.48898438 5.3628125 -1.38671875 4.390625 C-1 2 -1 2 0 0 Z " fill="#0C195D" transform="translate(39,359)"/>
<path d="M0 0 C0 0.66 0 1.32 0 2 C-3.87458298 2.81449712 -7.7497375 3.62624263 -11.625 4.4375 C-12.71941406 4.66759766 -13.81382812 4.89769531 -14.94140625 5.13476562 C-16.53662109 5.46831055 -16.53662109 5.46831055 -18.1640625 5.80859375 C-19.62513428 6.11494751 -19.62513428 6.11494751 -21.11572266 6.42749023 C-24.06878795 7.01365395 -27.02798195 7.52008269 -30 8 C-30 8.66 -30 9.32 -30 10 C-36.22333078 13.05065234 -36.22333078 13.05065234 -39.875 12.8125 C-42 12 -42 12 -43 10 C-40.64885408 8.86830299 -38.29440665 7.74458619 -35.9375 6.625 C-35.28072266 6.30789062 -34.62394531 5.99078125 -33.94726562 5.6640625 C-29.70603556 3.65835764 -25.56181186 2.17164252 -21 1 C-20.2059375 0.79117188 -19.411875 0.58234375 -18.59375 0.3671875 C-12.21223757 -1.13294415 -6.44676408 -1.5628519 0 0 Z " fill="#0E2165" transform="translate(330,90)"/>
<path d="M0 0 C0.66 0 1.32 0 2 0 C2.04982449 5.37108035 2.08591866 10.74202305 2.10986328 16.11328125 C2.11985643 17.93654731 2.13345551 19.75979762 2.15087891 21.58300781 C2.32450751 40.232763 2.32450751 40.232763 0 49 C-0.66 49 -1.32 49 -2 49 C-2.495 51.475 -2.495 51.475 -3 54 C-4.32 54 -5.64 54 -7 54 C-6.69255859 53.21689453 -6.69255859 53.21689453 -6.37890625 52.41796875 C-4.12441796 46.25857729 -3.42755093 40.51332911 -3 34 C-2.81997911 32.10344187 -2.63289215 30.2075362 -2.4375 28.3125 C-2.35371094 27.48363281 -2.26992187 26.65476562 -2.18359375 25.80078125 C-2.12300781 25.20652344 -2.06242188 24.61226563 -2 24 C-1.67 24 -1.34 24 -1 24 C0.32915021 16.02509872 0.08801359 8.05813281 0 0 Z " fill="#09155B" transform="translate(243,299)"/>
<path d="M0 0 C1.51400391 0.19916016 1.51400391 0.19916016 3.05859375 0.40234375 C16.34604661 2.05663007 29.62246062 2.60013673 43 3 C43.66 4.32 44.32 5.64 45 7 C40.48341286 7.04993675 35.96697774 7.08597002 31.45019531 7.10986328 C29.91794022 7.11983806 28.38570375 7.13342276 26.85351562 7.15087891 C7.38134375 7.36695392 7.38134375 7.36695392 2 5 C0.375 2.375 0.375 2.375 0 0 Z " fill="#142576" transform="translate(133,446)"/>
<path d="M0 0 C0 0.66 0 1.32 0 2 C0.60328125 2.2371875 1.2065625 2.474375 1.828125 2.71875 C4.50191836 4.29609572 5.31498302 5.77169611 6.75 8.5 C7.17796875 9.2940625 7.6059375 10.088125 8.046875 10.90625 C9 13 9 13 9 15 C8.34 15 7.68 15 7 15 C5 13 5 13 3.1875 10.6875 C-0.82052008 5.76336105 -4.57190905 1.36814098 -11 0 C-15.67847847 -0.23597589 -20.32023669 -0.17524772 -25 0 C-25 -1.32 -25 -2.64 -25 -4 C-15.68722162 -5.82206533 -8.23713454 -4.72872538 0 0 Z " fill="#0E1B60" transform="translate(191,100)"/>
<path d="M0 0 C0.33 0 0.66 0 1 0 C1 22.44 1 44.88 1 68 C0.67 68 0.34 68 0 68 C0 56.12 0 44.24 0 32 C-0.66 32 -1.32 32 -2 32 C-2.04946866 27.92492428 -2.08575189 23.84996503 -2.10986328 19.7746582 C-2.1199157 18.38855952 -2.1335597 17.00248201 -2.15087891 15.61645508 C-2.17515952 13.6233025 -2.18542031 11.62999467 -2.1953125 9.63671875 C-2.20578613 8.43748779 -2.21625977 7.23825684 -2.22705078 6.00268555 C-2 3 -2 3 0 0 Z " fill="#051253" transform="translate(244,183)"/>
<path d="M0 0 C0.969375 0.886875 1.93875 1.77375 2.9375 2.6875 C6.94518469 6.14494929 11.30561573 8.59426112 16 11 C16 11.66 16 12.32 16 13 C19.3 13.99 22.6 14.98 26 16 C26 17.32 26 18.64 26 20 C20.62275577 19.49458875 17.04216843 17.60570502 12.5625 14.8125 C11.90306396 14.40829834 11.24362793 14.00409668 10.56420898 13.58764648 C6.00075603 10.7430508 1.81633643 7.81633643 -2 4 C-2 3.34 -2 2.68 -2 2 C-1.34 2 -0.68 2 0 2 C0 1.34 0 0.68 0 0 Z " fill="#0D1C63" transform="translate(105,375)"/>
<path d="M0 0 C-0.66 0 -1.32 0 -2 0 C-2 0.66 -2 1.32 -2 2 C-7.00246673 3.31864186 -11.99291848 3.1470893 -17.125 3.125 C-18.48431641 3.13080078 -18.48431641 3.13080078 -19.87109375 3.13671875 C-20.74121094 3.13542969 -21.61132812 3.13414062 -22.5078125 3.1328125 C-23.29816895 3.13168457 -24.08852539 3.13055664 -24.90283203 3.12939453 C-27 3 -27 3 -30 2 C-30 1.34 -30 0.68 -30 0 C-26.2651544 -1.12518133 -22.56846573 -1.31677051 -18.6875 -1.5625 C-16.77517578 -1.68818359 -16.77517578 -1.68818359 -14.82421875 -1.81640625 C-3.67450561 -2.35168359 -3.67450561 -2.35168359 0 0 Z " fill="#102276" transform="translate(182,399)"/>
<path d="M0 0 C0.99 0.495 0.99 0.495 2 1 C2.19225812 6.92618557 2.37098213 12.85256525 2.53710938 18.77954102 C2.59555071 20.79625422 2.6577059 22.81286333 2.72363281 24.8293457 C2.81769006 27.72588145 2.89843632 30.62252751 2.9765625 33.51953125 C3.00875885 34.42274612 3.0409552 35.325961 3.0741272 36.25654602 C3.09429901 37.09719101 3.11447083 37.937836 3.13525391 38.80395508 C3.15746002 39.54341873 3.17966614 40.28288239 3.20254517 41.04475403 C3 43 3 43 1 46 C0 45 0 45 -0.12025452 43.17137146 C-0.11803391 42.37417191 -0.11581329 41.57697235 -0.11352539 40.75561523 C-0.11344986 39.85475693 -0.11337433 38.95389862 -0.11329651 38.02574158 C-0.10813522 37.04658279 -0.10297394 36.06742401 -0.09765625 35.05859375 C-0.0962413 34.06118668 -0.09482635 33.0637796 -0.09336853 32.03614807 C-0.08775114 28.83656876 -0.07519571 25.63705831 -0.0625 22.4375 C-0.05748724 20.27408955 -0.05292395 18.11067801 -0.04882812 15.94726562 C-0.03777607 10.63148675 -0.02102104 5.31574829 0 0 Z " fill="#091867" transform="translate(505,243)"/>
<path d="M0 0 C0 0.66 0 1.32 0 2 C-6.22261119 5.16508125 -12.91393991 7.98884085 -20 8 C-22.32421875 6.53515625 -22.32421875 6.53515625 -24 5 C-22.63875 4.62875 -22.63875 4.62875 -21.25 4.25 C-18.80443325 3.5662395 -16.43196267 2.79691541 -14.0390625 1.94140625 C-12.99492187 1.56886719 -11.95078125 1.19632812 -10.875 0.8125 C-9.88242187 0.44769531 -8.88984375 0.08289063 -7.8671875 -0.29296875 C-4.80275697 -1.04863895 -3.00226243 -0.86328791 0 0 Z " fill="#0E1D6B" transform="translate(377,378)"/>
<path d="M0 0 C0.66 0 1.32 0 2 0 C2.74668723 5.31207248 3.11933785 10.4042139 3.09765625 15.78125 C3.0962413 16.48020386 3.09482635 17.17915771 3.09336853 17.89929199 C3.0878367 20.09957429 3.07529777 22.29974923 3.0625 24.5 C3.05747616 26.00520685 3.05291482 27.51041532 3.04882812 29.015625 C3.03788977 32.67711735 3.02067359 36.33854817 3 40 C2.34 40 1.68 40 1 40 C0.97494385 39.04109863 0.9498877 38.08219727 0.92407227 37.09423828 C0.8300138 33.54201523 0.72978942 29.98998844 0.62768555 26.43798828 C0.58433074 24.89962347 0.54265605 23.36121037 0.50268555 21.82275391 C0.44499602 19.6134586 0.38129821 17.40440652 0.31640625 15.1953125 C0.29969376 14.50567413 0.28298126 13.81603577 0.26576233 13.10549927 C0.19193005 9.42885736 0.19193005 9.42885736 -1 6 C-0.71887936 3.99199544 -0.38932033 1.98985949 0 0 Z " fill="#162D7C" transform="translate(506,236)"/>
<path d="M0 0 C-0.99 0.495 -0.99 0.495 -2 1 C-2.33 1.99 -2.66 2.98 -3 4 C-5.04660819 4.70572696 -7.05592534 5.0095872 -9.1875 5.375 C-10.0846875 5.684375 -10.0846875 5.684375 -11 6 C-11.33 6.99 -11.66 7.98 -12 9 C-15.52722009 11.56525098 -19.24229784 13.78958697 -23 16 C-20.84985262 9.46992276 -15.84074523 5.2968417 -10.02734375 1.8203125 C-6.64470608 0.25909512 -3.70424008 -0.3367491 0 0 Z " fill="#0D1D68" transform="translate(323,143)"/>
<path d="M0 0 C0.8971875 0.309375 0.8971875 0.309375 1.8125 0.625 C0.8125 3.625 0.8125 3.625 -2.0625 5.4375 C-5.52886008 7.86395205 -6.60794534 9.76386639 -8.1875 13.625 C-8.8475 13.625 -9.5075 13.625 -10.1875 13.625 C-10.1875 15.275 -10.1875 16.925 -10.1875 18.625 C-10.5175 17.635 -10.8475 16.645 -11.1875 15.625 C-11.8475 15.625 -12.5075 15.625 -13.1875 15.625 C-13.02957033 9.30781329 -9.51243138 5.81772824 -5.1875 1.625 C-2.1875 -0.375 -2.1875 -0.375 0 0 Z " fill="#122169" transform="translate(163.1875,98.375)"/>
<path d="M0 0 C-3.02554801 3.35361948 -6.01799456 5.26533562 -10.0625 7.25 C-11.10535156 7.77078125 -12.14820313 8.2915625 -13.22265625 8.828125 C-16 10 -16 10 -19 10 C-19 9.34 -19 8.68 -19 8 C-19.99 7.67 -20.98 7.34 -22 7 C-19.27831329 5.62865399 -16.5493512 4.27795288 -13.8125 2.9375 C-13.04357422 2.54755859 -12.27464844 2.15761719 -11.48242188 1.75585938 C-4.39400159 -1.68187235 -4.39400159 -1.68187235 0 0 Z " fill="#0B195C" transform="translate(397,369)"/>
<path d="M0 0 C-0.33 0.99 -0.66 1.98 -1 3 C-2.2065625 3.4640625 -2.2065625 3.4640625 -3.4375 3.9375 C-6.53457338 5.22165238 -6.66261922 6.05776228 -8 9 C-12.26145301 12.57412188 -17.09158628 15.41192731 -22 18 C-22.66 17.67 -23.32 17.34 -24 17 C-20.7 14.69 -17.4 12.38 -14 10 C-14.33 9.34 -14.66 8.68 -15 8 C-13.258859 6.65511867 -11.50673385 5.32444855 -9.75 4 C-8.77546875 3.2575 -7.8009375 2.515 -6.796875 1.75 C-4 0 -4 0 0 0 Z " fill="#122172" transform="translate(256,417)"/>
<path d="M0 0 C2.475 0.99 2.475 0.99 5 2 C5 2.66 5 3.32 5 4 C5.99 4.33 6.98 4.66 8 5 C9.7890625 6.99609375 9.7890625 6.99609375 11.625 9.4375 C12.23601562 10.24058594 12.84703125 11.04367188 13.4765625 11.87109375 C15 14 15 14 16 16 C15.34 16 14.68 16 14 16 C14.33 16.99 14.66 17.98 15 19 C14.34 19 13.68 19 13 19 C11.484375 17.27734375 11.484375 17.27734375 9.75 14.9375 C7.01079275 11.29096624 4.16271032 7.85473126 1.06640625 4.5078125 C0 3 0 3 0 0 Z " fill="#0D195B" transform="translate(459,139)"/>
<path d="M0 0 C6.3762531 0.90035055 11.68873479 7.10211926 15.5390625 11.9296875 C16.41706911 13.24985571 17.22102119 14.61908302 18 16 C17.01 16.33 16.02 16.66 15 17 C9.97413502 13.39448817 4.99459224 8.98377671 3 3 C1.50014391 1.33289654 1.50014391 1.33289654 0 0 Z " fill="#13277A" transform="translate(440,121)"/>
<path d="M0 0 C0.75539063 -0.01224609 1.51078125 -0.02449219 2.2890625 -0.03710938 C6.52847819 -0.04822672 9.75480179 0.23698178 13.625 2.1875 C13.625 2.5175 13.625 2.8475 13.625 3.1875 C5.045 3.1875 -3.535 3.1875 -12.375 3.1875 C-10.16445712 -1.23358576 -4.3309356 0.00365788 0 0 Z " fill="#1F327C" transform="translate(345.375,85.8125)"/>
<path d="M0 0 C5.9369172 -0.31246933 9.77304573 0.07290561 15 3 C16.4375 5.1875 16.4375 5.1875 17 7 C10.80759538 6.31195504 4.98044406 4.71951285 -1 3 C-0.67 2.01 -0.34 1.02 0 0 Z " fill="#0B1D63" transform="translate(381,92)"/>
<path d="M0 0 C0.33 0.99 0.66 1.98 1 3 C0.01 3.495 0.01 3.495 -1 4 C-1.6496875 5.3921875 -1.6496875 5.3921875 -2.3125 6.8125 C-4.14334933 10.27077095 -5.86846306 11.72963572 -9 14 C-9.53625 14.5775 -10.0725 15.155 -10.625 15.75 C-12 17 -12 17 -15 17 C-13.67879172 14.06769807 -12.25361803 12.01335101 -9.9609375 9.765625 C-9.38085938 9.19199219 -8.80078125 8.61835938 -8.203125 8.02734375 C-7.59984375 7.44082031 -6.9965625 6.85429687 -6.375 6.25 C-5.76398438 5.64800781 -5.15296875 5.04601562 -4.5234375 4.42578125 C-3.02011376 2.94594695 -1.51065144 1.47235324 0 0 Z " fill="#0B185F" transform="translate(268,401)"/>
<path d="M0 0 C-6.83782175 2.4420792 -13.79431807 2.62022758 -21 3 C-21.33 2.34 -21.66 1.68 -22 1 C-21.071875 0.87625 -20.14375 0.7525 -19.1875 0.625 C-15.86074765 0.18466918 -15.86074765 0.18466918 -13 -2 C-7.48958517 -3.28967156 -4.69029744 -3.12686496 0 0 Z " fill="#122475" transform="translate(371,436)"/>
<path d="M0 0 C3.89692798 0.94063779 5.81113454 2.06113454 8.625 4.875 C8.625 5.535 8.625 6.195 8.625 6.875 C9.285 7.535 9.945 8.195 10.625 8.875 C6.02691871 8.33605575 2.75715631 7.10928472 -1.25 4.8125 C-2.21679688 4.26464844 -3.18359375 3.71679688 -4.1796875 3.15234375 C-4.90414063 2.73082031 -5.62859375 2.30929688 -6.375 1.875 C-3.375 -0.125 -3.375 -0.125 0 0 Z " fill="#101F6D" transform="translate(416.375,104.125)"/>
<path d="M0 0 C0 0.66 0 1.32 0 2 C-6.11980533 3.40454548 -11.71739294 4.23268915 -18 4 C-17.67 2.68 -17.34 1.36 -17 0 C-11.24153561 -1.39599137 -5.75846439 -1.39599137 0 0 Z " fill="#0B185B" transform="translate(330,90)"/>
<path d="M0 0 C0.33 0.33 0.66 0.66 1 1 C3.32817964 1.36760731 5.6618385 1.70241581 8 2 C3.86455144 4.7569657 0.68373447 5.19584794 -4.1875 5.5625 C-5.81751953 5.68818359 -5.81751953 5.68818359 -7.48046875 5.81640625 C-8.72763672 5.90728516 -8.72763672 5.90728516 -10 6 C-10.33 4.68 -10.66 3.36 -11 2 C-7.18009548 0.20239787 -4.21571713 -0.28743526 0 0 Z " fill="#12297D" transform="translate(331,140)"/>
<path d="M0 0 C3.68069887 1.53643852 5.98775204 3.78150945 8.75 6.625 C9.54921875 7.44226563 10.3484375 8.25953125 11.171875 9.1015625 C12.07679687 10.04128906 12.07679687 10.04128906 13 11 C12.01 11.495 12.01 11.495 11 12 C10.67 12.66 10.34 13.32 10 14 C1.33479212 7.10284464 1.33479212 7.10284464 -0.0625 2.5 C-0.041875 1.675 -0.02125 0.85 0 0 Z " fill="#0F1F69" transform="translate(64,407)"/>
<path d="M0 0 C0.33 0.66 0.66 1.32 1 2 C-1.12354629 7.02281724 -3.94345202 11.34910682 -8 15 C-8.53625 15.7425 -9.0725 16.485 -9.625 17.25 C-10.07875 17.8275 -10.5325 18.405 -11 19 C-11.66 19 -12.32 19 -13 19 C-12.505 17.515 -12.505 17.515 -12 16 C-11.34 16 -10.68 16 -10 16 C-10.21011719 15.41476562 -10.42023438 14.82953125 -10.63671875 14.2265625 C-11 12 -11 12 -10.14453125 10.1484375 C-7.66637683 6.84907648 -5.89626767 4.61224869 -2 3 C-1.34 2.01 -0.68 1.02 0 0 Z " fill="#11216E" transform="translate(279,388)"/>
<path d="M0 0 C0.33 0 0.66 0 1 0 C1 8.91 1 17.82 1 27 C-3.44196411 18.11607178 -2.54330521 9.40114603 0 0 Z " fill="#050E43" transform="translate(457,248)"/>
<path d="M0 0 C2.25525345 1.07335592 4.50375548 2.15807558 6.75 3.25 C7.38421875 3.55035156 8.0184375 3.85070312 8.671875 4.16015625 C12.41687422 5.99364545 15.24803883 7.85887261 18 11 C16.88625 10.649375 15.7725 10.29875 14.625 9.9375 C11.19735524 8.62760669 11.19735524 8.62760669 9 10 C9 9.34 9 8.68 9 8 C8.21625 7.9175 7.4325 7.835 6.625 7.75 C4 7 4 7 2.8125 5 C2.544375 4.34 2.27625 3.68 2 3 C1.34 2.67 0.68 2.34 0 2 C0 1.34 0 0.68 0 0 Z " fill="#0C1B62" transform="translate(88,427)"/>
<path d="M0 0 C0.33 0 0.66 0 1 0 C1 14.19 1 28.38 1 43 C0.67 43 0.34 43 0 43 C0 31.12 0 19.24 0 7 C-0.66 7 -1.32 7 -2 7 C-1.34 4.69 -0.68 2.38 0 0 Z " fill="#07175F" transform="translate(244,208)"/>
<path d="M0 0 C0 0.33 0 0.66 0 1 C-0.9075 1.12375 -1.815 1.2475 -2.75 1.375 C-5.58970323 1.92109677 -7.52590591 2.57263803 -10 4 C-10 3.34 -10 2.68 -10 2 C-19.57 2 -29.14 2 -39 2 C-39 1.67 -39 1.34 -39 1 C-34.75014501 0.82949792 -30.50009817 0.66431937 -26.25 0.5 C-25.06277344 0.45230469 -23.87554687 0.40460938 -22.65234375 0.35546875 C-15.09696582 0.06646522 -7.56073121 -0.06257157 0 0 Z " fill="#091655" transform="translate(188,449)"/>
<path d="M0 0 C-6.15034169 8.44646925 -6.15034169 8.44646925 -10 12 C-9.67 10.68 -9.34 9.36 -9 8 C-9.66 7.67 -10.32 7.34 -11 7 C-10.26418258 5.8450079 -9.51069961 4.70125815 -8.75 3.5625 C-8.33234375 2.92441406 -7.9146875 2.28632812 -7.484375 1.62890625 C-5.16356851 -0.9178735 -3.10530322 -1.55265161 0 0 Z " fill="#081142" transform="translate(270,119)"/>
<path d="M0 0 C0.66 0 1.32 0 2 0 C2 0.66 2 1.32 2 2 C2.90492188 2.35578125 2.90492188 2.35578125 3.828125 2.71875 C6.50191836 4.29609572 7.31498302 5.77169611 8.75 8.5 C9.17796875 9.2940625 9.6059375 10.088125 10.046875 10.90625 C11 13 11 13 11 15 C10.34 15 9.68 15 9 15 C4.3859878 10.3859878 2.04142913 6.12428738 0 0 Z " fill="#132171" transform="translate(189,100)"/>
<path d="M0 0 C0.33 0.99 0.66 1.98 1 3 C1.66 3 2.32 3 3 3 C3 7.62 3 12.24 3 17 C2.67 17 2.34 17 2 17 C1.67 14.36 1.34 11.72 1 9 C0.67 10.98 0.34 12.96 0 15 C-0.66 15 -1.32 15 -2 15 C-2 11.37 -2 7.74 -2 4 C-1.34 4 -0.68 4 0 4 C0 2.68 0 1.36 0 0 Z " fill="#111D7F" transform="translate(38,352)"/>
<path d="M0 0 C0.33 0.66 0.66 1.32 1 2 C-3.38512875 5.31558515 -6.37458159 6.54996653 -12 7 C-10.95724749 3.7558811 -9.38759509 2.39805336 -6.5625 0.6875 C-3 -1 -3 -1 0 0 Z " fill="#10237A" transform="translate(405,363)"/>
<path d="M0 0 C0.99 0.495 0.99 0.495 2 1 C2 1.66 2 2.32 2 3 C2.66 3 3.32 3 4 3 C3.67 14.22 3.34 25.44 3 37 C2.67 37 2.34 37 2 37 C1.97494385 36.09233887 1.9498877 35.18467773 1.92407227 34.24951172 C1.82856941 30.86121766 1.72935916 27.47307331 1.62768555 24.08496094 C1.58454663 22.62243852 1.54285805 21.15987253 1.50268555 19.69726562 C1.4444693 17.5871064 1.38092712 15.47716225 1.31640625 13.3671875 C1.27974854 12.09987793 1.24309082 10.83256836 1.20532227 9.52685547 C1.01628964 6.27980984 0.6037927 3.19301052 0 0 Z " fill="#08114D" transform="translate(196,112)"/>
<path d="M0 0 C0.33 1.32 0.66 2.64 1 4 C-0.24420647 4.5345256 -1.49570936 5.05208611 -2.75 5.5625 C-3.44609375 5.85253906 -4.1421875 6.14257812 -4.859375 6.44140625 C-7.30012784 7.07831803 -8.6403655 6.80248831 -11 6 C-10.34 6 -9.68 6 -9 6 C-9 5.01 -9 4.02 -9 3 C-6.09769758 0.09769758 -4.03330601 -0.33610883 0 0 Z " fill="#0E2778" transform="translate(311,383)"/>
<path d="M0 0 C0.609375 1.8359375 0.609375 1.8359375 1 4 C-1.08117669 7.12176503 -2.86651634 8.91101089 -6 11 C-6.99 10.67 -7.98 10.34 -9 10 C-7.61811547 6.78956118 -6.07578097 4.95063635 -3.375 2.75 C-2.74335938 2.22921875 -2.11171875 1.7084375 -1.4609375 1.171875 C-0.73777344 0.59179688 -0.73777344 0.59179688 0 0 Z " fill="#0B1B55" transform="translate(413,353)"/>
<path d="M0 0 C4.19469571 0.59924224 8.00999834 1.57499941 12 3 C12 3.99 12 4.98 12 6 C13.43750191 7.68798827 13.43750191 7.68798827 15 9 C4.83763838 5.87822878 4.83763838 5.87822878 1 3 C0.67 2.01 0.34 1.02 0 0 Z " fill="#0C1B68" transform="translate(376,145)"/>
<path d="M0 0 C0.91644287 0.00523682 1.83288574 0.01047363 2.77709961 0.01586914 C3.76645508 0.0190918 4.75581055 0.02231445 5.77514648 0.02563477 C6.81606445 0.03401367 7.85698242 0.04239258 8.92944336 0.05102539 C10.49662109 0.05779297 10.49662109 0.05779297 12.09545898 0.06469727 C14.68600996 0.07652627 17.27644895 0.0930085 19.86694336 0.11352539 C20.19694336 0.77352539 20.52694336 1.43352539 20.86694336 2.11352539 C17.24278402 2.33875563 13.61770117 2.54083847 9.99194336 2.73852539 C8.9594043 2.80297852 7.92686523 2.86743164 6.86303711 2.93383789 C5.8769043 2.98540039 4.89077148 3.03696289 3.87475586 3.09008789 C2.9635498 3.14245605 2.05234375 3.19482422 1.11352539 3.2487793 C-1.13305664 3.11352539 -1.13305664 3.11352539 -3.13305664 1.11352539 C-2.13305664 0.11352539 -2.13305664 0.11352539 0 0 Z " fill="#0B1BA3" transform="translate(315.133056640625,382.886474609375)"/>
<path d="M0 0 C9.9 0.33 19.8 0.66 30 1 C30 1.33 30 1.66 30 2 C17.625 2.495 17.625 2.495 5 3 C5 2.34 5 1.68 5 1 C3.35 1 1.7 1 0 1 C0 0.67 0 0.34 0 0 Z " fill="#0E227C" transform="translate(325,89)"/>
<path d="M0 0 C-0.66 0 -1.32 0 -2 0 C-2 0.66 -2 1.32 -2 2 C-1.01 2.33 -0.02 2.66 1 3 C-5.5 6 -5.5 6 -10 6 C-10.33 5.01 -10.66 4.02 -11 3 C-9.73581754 2.30034557 -8.46334598 1.61565237 -7.1875 0.9375 C-6.47980469 0.55464844 -5.77210938 0.17179687 -5.04296875 -0.22265625 C-3 -1 -3 -1 0 0 Z " fill="#0B1756" transform="translate(204,389)"/>
<path d="M0 0 C4.67461851 -0.32613618 7.16674383 0.29417212 11 3 C10.67 3.99 10.34 4.98 10 6 C4.06 4.515 4.06 4.515 -2 3 C-1.34 2.67 -0.68 2.34 0 2 C0 1.34 0 0.68 0 0 Z " fill="#112178" transform="translate(68,338)"/>
<path d="M0 0 C2.35931785 3.53897678 2.85146936 5.76687689 3 10 C1.0625 12.4375 1.0625 12.4375 -1 14 C-2.35401611 11.29196778 -1.91421523 9.43517683 -1.625 6.4375 C-1.53476563 5.44621094 -1.44453125 4.45492187 -1.3515625 3.43359375 C-1 1 -1 1 0 0 Z " fill="#0D1B6A" transform="translate(243,172)"/>
<path d="M0 0 C0.99 0.33 1.98 0.66 3 1 C2.01 4.63 1.02 8.26 0 12 C-0.99 11.67 -1.98 11.34 -3 11 C-3.125 5.25 -3.125 5.25 -2 3 C-1.34 3 -0.68 3 0 3 C0 2.01 0 1.02 0 0 Z " fill="#112372" transform="translate(248,151)"/>
<path d="M0 0 C0.66 0.66 1.32 1.32 2 2 C1.18044903 7.12219354 0.09794453 9.31132728 -4.125 12.4375 C-5.40464604 13.30957195 -6.6926734 14.16999962 -8 15 C-6.38102741 11.69918209 -4.64075691 8.47442567 -2.875 5.25 C-2.33617187 4.26515625 -1.79734375 3.2803125 -1.2421875 2.265625 C-0.83226562 1.51796875 -0.42234375 0.7703125 0 0 Z " fill="#09155A" transform="translate(197,344)"/>
<path d="M0 0 C1.17949219 0.10183594 2.35898438 0.20367187 3.57421875 0.30859375 C4.47785156 0.39238281 5.38148438 0.47617187 6.3125 0.5625 C6.3125 0.8925 6.3125 1.2225 6.3125 1.5625 C5.19875 1.871875 4.085 2.18125 2.9375 2.5 C-0.4820155 3.38576483 -0.4820155 3.38576483 -2.6875 4.5625 C-4.36404729 4.28307545 -6.03358154 3.95421753 -7.6875 3.5625 C-7.6875 2.9025 -7.6875 2.2425 -7.6875 1.5625 C-8.3475 1.2325 -9.0075 0.9025 -9.6875 0.5625 C-6.14075997 -0.61974668 -3.71227005 -0.33079634 0 0 Z " fill="#0B1857" transform="translate(148.6875,396.4375)"/>
<path d="M0 0 C1.98 0.99 3.96 1.98 6 3 C6 3.99 6 4.98 6 6 C7.31337396 7.0260734 8.64664105 8.02727325 10 9 C10 9.66 10 10.32 10 11 C6.54457281 9.46425458 3.75129011 7.60257173 1 5 C0.1875 2.25 0.1875 2.25 0 0 Z " fill="#0B1757" transform="translate(435,116)"/>
<path d="M0 0 C1.77260631 0.45142775 3.5430368 0.91140523 5.3125 1.375 C6.79169922 1.75785156 6.79169922 1.75785156 8.30078125 2.1484375 C11 3 11 3 14 5 C13.67 5.66 13.34 6.32 13 7 C8.14036821 6.39254603 4.2594482 4.27241033 0 2 C0 1.34 0 0.68 0 0 Z " fill="#132472" transform="translate(98,435)"/>
<path d="M0 0 C3.63 0 7.26 0 11 0 C11 0.66 11 1.32 11 2 C7.71480525 3.09506492 5.26336585 3.09960608 1.8125 3.0625 C0.18248047 3.04896484 0.18248047 3.04896484 -1.48046875 3.03515625 C-2.31191406 3.02355469 -3.14335937 3.01195312 -4 3 C-2.68 2.67 -1.36 2.34 0 2 C0 1.34 0 0.68 0 0 Z " fill="#0D1D70" transform="translate(159,399)"/>
<path d="M0 0 C-0.34485543 2.8842454 -0.78255407 3.8207818 -3.06640625 5.703125 C-3.89011719 6.21359375 -4.71382813 6.7240625 -5.5625 7.25 C-6.38878906 7.77078125 -7.21507812 8.2915625 -8.06640625 8.828125 C-9.02353516 9.40820312 -9.02353516 9.40820312 -10 10 C-8.18046261 5.01094585 -5.87721381 0 0 0 Z " fill="#0C175E" transform="translate(310,149)"/>
<path d="M0 0 C-0.99 1.485 -0.99 1.485 -2 3 C-4.8203125 3.29296875 -4.8203125 3.29296875 -8.125 3.1875 C-9.76855469 3.14689453 -9.76855469 3.14689453 -11.4453125 3.10546875 C-12.70988281 3.05326172 -12.70988281 3.05326172 -14 3 C-14 2.34 -14 1.68 -14 1 C-12.23103898 0.63659714 -10.45973374 0.28459117 -8.6875 -0.0625 C-7.70136719 -0.25972656 -6.71523437 -0.45695312 -5.69921875 -0.66015625 C-3 -1 -3 -1 0 0 Z " fill="#09145C" transform="translate(185,362)"/>
<path d="M0 0 C3.63 0.33 7.26 0.66 11 1 C10.01 1.33 9.02 1.66 8 2 C8 2.66 8 3.32 8 4 C4.625 4.125 4.625 4.125 1 4 C0.34 3.34 -0.32 2.68 -1 2 C-0.67 1.34 -0.34 0.68 0 0 Z " fill="#0D1A57" transform="translate(60,336)"/>
<path d="M0 0 C0.33 0 0.66 0 1 0 C0.88529863 1.75070517 0.75780972 3.50057536 0.625 5.25 C0.55539062 6.22453125 0.48578125 7.1990625 0.4140625 8.203125 C0.01534751 10.89633189 -0.63507063 12.66963279 -2 15 C-4.125 8.375 -4.125 8.375 -3 5 C-2.34 4.67 -1.68 4.34 -1 4 C-0.34786708 1.97536745 -0.34786708 1.97536745 0 0 Z " fill="#0E1E92" transform="translate(457,242)"/>
<path d="M0 0 C1.32 0 2.64 0 4 0 C3.8125 3.3125 3.8125 3.3125 3 7 C0.4375 8.9375 0.4375 8.9375 -2 10 C-1.54177532 6.53058454 -1.10868317 3.32604951 0 0 Z " fill="#0A144E" transform="translate(249,144)"/>
<path d="M0 0 C0.79921875 0.01804687 1.5984375 0.03609375 2.421875 0.0546875 C3.02515625 0.07789062 3.6284375 0.10109375 4.25 0.125 C4.25 0.785 4.25 1.445 4.25 2.125 C0.34971775 4.72518816 -3.22434569 4.27585514 -7.75 4.125 C-8.08 3.465 -8.41 2.805 -8.75 2.125 C-5.68753253 0.34090198 -3.52920727 -0.10380021 0 0 Z " fill="#0E1D61" transform="translate(363.75,87.875)"/>
<path d="M0 0 C-1.34540051 4.03620153 -3.41945509 4.85167306 -7 7 C-7.99 7.33 -8.98 7.66 -10 8 C-10 7.34 -10 6.68 -10 6 C-9.01 5.34 -8.02 4.68 -7 4 C-6.63837971 2.67405895 -6.30271961 1.34061543 -6 0 C-3.50907189 -1.24546405 -2.58919267 -0.7767578 0 0 Z " fill="#0C1759" transform="translate(165,99)"/>
<path d="M0 0 C2.31 0.33 4.62 0.66 7 1 C6.34 2.32 5.68 3.64 5 5 C-1.52307692 4.38461538 -1.52307692 4.38461538 -3.9375 2.4375 C-4.288125 1.963125 -4.63875 1.48875 -5 1 C-3.35 1 -1.7 1 0 1 C0 0.67 0 0.34 0 0 Z " fill="#132584" transform="translate(308,434)"/>
<path d="M0 0 C10.55808656 -0.18451025 10.55808656 -0.18451025 15 1 C14.67 1.66 14.34 2.32 14 3 C11.35139573 3.59355614 8.70802678 3.74209269 6 4 C6 3.01 6 2.02 6 1 C4.02 1 2.04 1 0 1 C0 0.67 0 0.34 0 0 Z " fill="#091654" transform="translate(343,383)"/>
<path d="M0 0 C2.8125 0.625 2.8125 0.625 6 2 C7.875 5.125 7.875 5.125 9 8 C5.12793601 7.42636089 2.81534937 5.65894107 0 3 C0 2.01 0 1.02 0 0 Z " fill="#0A1B63" transform="translate(449,130)"/>
<path d="M0 0 C-3 2 -3 2 -6 2 C-6.33 2.99 -6.66 3.98 -7 5 C-8.98 5 -10.96 5 -13 5 C-12.67 4.01 -12.34 3.02 -12 2 C-7.92532275 0.51117562 -4.33458585 -0.26270217 0 0 Z " fill="#0C1A65" transform="translate(210,443)"/>
<path d="M0 0 C2.09350689 3.4019487 2.17942163 6.05272412 2 10 C1.01 9.67 0.02 9.34 -1 9 C-2.1875 5.4375 -2.1875 5.4375 -3 2 C-2.01 1.34 -1.02 0.68 0 0 Z " fill="#112165" transform="translate(41,371)"/>
<path d="M0 0 C0.66 0 1.32 0 2 0 C1 7.42857143 1 7.42857143 0 11 C-1.32 10.67 -2.64 10.34 -4 10 C-3.67 7.69 -3.34 5.38 -3 3 C-2.34 3.33 -1.68 3.66 -1 4 C-0.67 2.68 -0.34 1.36 0 0 Z " fill="#142473" transform="translate(500,311)"/>
<path d="M0 0 C2.6843999 2.32317459 2.97569899 2.72782863 3.3125 6.5 C3 10 3 10 1 13 C0 12 0 12 -0.09765625 9.27734375 C-0.08605469 8.17519531 -0.07445312 7.07304687 -0.0625 5.9375 C-0.05347656 4.83277344 -0.04445313 3.72804688 -0.03515625 2.58984375 C-0.02355469 1.73519531 -0.01195312 0.88054687 0 0 Z " fill="#0F1E69" transform="translate(505,276)"/>
<path d="M0 0 C0.33 0 0.66 0 1 0 C1.06058594 0.69867188 1.12117187 1.39734375 1.18359375 2.1171875 C1.26738281 3.02726563 1.35117188 3.93734375 1.4375 4.875 C1.51871094 5.77992188 1.59992188 6.68484375 1.68359375 7.6171875 C1.86989285 10.01110861 1.86989285 10.01110861 3 12 C3.06996014 13.70702735 3.08440154 15.41668003 3.0625 17.125 C3.05347656 18.03507812 3.04445312 18.94515625 3.03515625 19.8828125 C3.01775391 20.93082031 3.01775391 20.93082031 3 22 C2.67 22 2.34 22 2 22 C2 19.69 2 17.38 2 15 C1.34 15 0.68 15 0 15 C0 10.05 0 5.1 0 0 Z " fill="#02082C" transform="translate(148,152)"/>
<path d="M0 0 C0.33 0 0.66 0 1 0 C1 1.98 1 3.96 1 6 C1.66 6 2.32 6 3 6 C2.44271087 9.34373475 1.64826111 12.03312999 0 15 C-0.84888195 9.62374766 -1.0024305 5.34629602 0 0 Z " fill="#0A154C" transform="translate(453,280)"/>
<path d="M0 0 C1.89492187 0.01353516 1.89492187 0.01353516 3.828125 0.02734375 C4.79234375 0.03894531 5.7565625 0.05054688 6.75 0.0625 C6.75 0.3925 6.75 0.7225 6.75 1.0625 C3.12 1.0625 -0.51 1.0625 -4.25 1.0625 C-4.25 1.7225 -4.25 2.3825 -4.25 3.0625 C-6.56 3.0625 -8.87 3.0625 -11.25 3.0625 C-11.25 2.4025 -11.25 1.7425 -11.25 1.0625 C-7.49600202 -0.1414337 -3.91782588 -0.03627617 0 0 Z " fill="#060E3F" transform="translate(163.25,397.9375)"/>
<path d="M0 0 C0.66 0 1.32 0 2 0 C2.33 0.99 2.66 1.98 3 3 C1.35 4.65 -0.3 6.3 -2 8 C-2.66 7.34 -3.32 6.68 -4 6 C-1.125 1.125 -1.125 1.125 0 0 Z " fill="#12206E" transform="translate(430,336)"/>
<path d="M0 0 C0.33 0.66 0.66 1.32 1 2 C0.67 2.99 0.34 3.98 0 5 C0.66 5.33 1.32 5.66 2 6 C0.625 8 0.625 8 -1 10 C-1.66 10 -2.32 10 -3 10 C-3.75 8.375 -3.75 8.375 -4 6 C-2.0625 2.75 -2.0625 2.75 0 0 Z " fill="#0B1652" transform="translate(435,328)"/>
<path d="M0 0 C2.64 0 5.28 0 8 0 C8 0.99 8 1.98 8 3 C5.08517222 3.80967438 3.53886783 4.21845993 0.6875 3.0625 C0.130625 2.711875 -0.42625 2.36125 -1 2 C-0.67 1.34 -0.34 0.68 0 0 Z " fill="#0F2471" transform="translate(381,92)"/>
<path d="M0 0 C2.475 0.495 2.475 0.495 5 1 C5 1.66 5 2.32 5 3 C6.65 3 8.3 3 10 3 C6.86501708 4.85776765 4.62528568 5.20140476 1 5 C0.67 3.35 0.34 1.7 0 0 Z " fill="#0A1558" transform="translate(132,392)"/>
<path d="M0 0 C0 1.32 0 2.64 0 4 C-2.75 4.6875 -2.75 4.6875 -6 5 C-8.375 3.5625 -8.375 3.5625 -10 2 C-3.375 0 -3.375 0 0 0 Z " fill="#122173" transform="translate(363,381)"/>
<path d="M0 0 C2 3 2 3 2 7 C1.34 7 0.68 7 0 7 C-0.33 8.98 -0.66 10.96 -1 13 C-2.17664871 9.47005387 -2.19850603 6.70544587 -2 3 C-1.34 2.01 -0.68 1.02 0 0 Z " fill="#11216B" transform="translate(287,365)"/>
<path d="M0 0 C0.66 0.99 1.32 1.98 2 3 C0.7260411 5.03833424 -0.61061923 7.03852126 -2 9 C-2.66 9 -3.32 9 -4 9 C-3.67 7.02 -3.34 5.04 -3 3 C-2.01 2.67 -1.02 2.34 0 2 C0 1.34 0 0.68 0 0 Z " fill="#0F1F6C" transform="translate(439,324)"/>
<path d="M0 0 C0.763125 0.474375 1.52625 0.94875 2.3125 1.4375 C4.96410548 3.10106097 4.96410548 3.10106097 8 4 C7.01 4.495 7.01 4.495 6 5 C6.66 6.65 7.32 8.3 8 10 C4.68062547 7.74756728 2.33948059 5.25856224 0 2 C0 1.34 0 0.68 0 0 Z " fill="#122987" transform="translate(421,176)"/>
<path d="M0 0 C0.33 0.66 0.66 1.32 1 2 C1.66 2 2.32 2 3 2 C3.25 8.625 3.25 8.625 1 12 C0.03929566 9.11788698 -0.10581883 7.30149956 -0.0625 4.3125 C-0.05347656 3.50425781 -0.04445312 2.69601563 -0.03515625 1.86328125 C-0.02355469 1.24839844 -0.01195312 0.63351563 0 0 Z " fill="#0C1958" transform="translate(149,112)"/>
<path d="M0 0 C1.32 0.33 2.64 0.66 4 1 C-1 7.57142857 -1 7.57142857 -6 9 C-6 8.34 -6 7.68 -6 7 C-5.34 7 -4.68 7 -4 7 C-3.71125 6.401875 -3.4225 5.80375 -3.125 5.1875 C-2 3 -2 3 0 0 Z " fill="#142F72" transform="translate(271,111)"/>
<path d="M0 0 C-0.66 1.32 -1.32 2.64 -2 4 C-4.4375 3.625 -4.4375 3.625 -7 3 C-7.33 2.34 -7.66 1.68 -8 1 C-4.93251126 -0.86240388 -3.40254489 -1.2151946 0 0 Z " fill="#0C1858" transform="translate(295,99)"/>
<path d="M0 0 C2.29912101 4.59824202 3.13732958 7.66158855 3.0625 12.75 C3.05347656 13.54921875 3.04445313 14.3484375 3.03515625 15.171875 C3.01775391 16.07679688 3.01775391 16.07679688 3 17 C2.67 17 2.34 17 2 17 C2 14.69 2 12.38 2 10 C1.34 10 0.68 10 0 10 C0 6.7 0 3.4 0 0 Z " fill="#10267C" transform="translate(455,267)"/>
<path d="M0 0 C0.66 0.33 1.32 0.66 2 1 C2 1.99 2 2.98 2 4 C-0.5 5.6875 -0.5 5.6875 -3 7 C-3 6.01 -3 5.02 -3 4 C-3.66 3.67 -4.32 3.34 -5 3 C-2.625 1.4375 -2.625 1.4375 0 0 Z " fill="#0A164E" transform="translate(284,102)"/>
<path d="M0 0 C6.625 0.75 6.625 0.75 10 3 C8.35 3 6.7 3 5 3 C5 3.66 5 4.32 5 5 C3.35 4.67 1.7 4.34 0 4 C0 2.66666667 0 1.33333333 0 0 Z " fill="#0D1954" transform="translate(396,96)"/>
<path d="M0 0 C0.99 0 1.98 0 3 0 C1.75686537 3.72940389 0.23014784 4.84656811 -3 7 C-3.99 6.67 -4.98 6.34 -6 6 C-6 5.01 -6 4.02 -6 3 C-3 2 -3 2 -1 2 C-0.67 1.34 -0.34 0.68 0 0 Z " fill="#0A165B" transform="translate(217,379)"/>
<path d="M0 0 C0.33 0.99 0.66 1.98 1 3 C1.99 3.33 2.98 3.66 4 4 C3.67 6.31 3.34 8.62 3 11 C0.60236815 8.60236815 0.65719414 7.66726502 0.375 4.375 C0.30023438 3.55773437 0.22546875 2.74046875 0.1484375 1.8984375 C0.09945313 1.27195313 0.05046875 0.64546875 0 0 Z " fill="#0B185B" transform="translate(499,208)"/>
<path d="M0 0 C0.66 0.33 1.32 0.66 2 1 C0.02 3.97 0.02 3.97 -2 7 C-2.99 6.34 -3.98 5.68 -5 5 C-4.1875 3.0625 -4.1875 3.0625 -3 1 C-2.01 0.67 -1.02 0.34 0 0 Z " fill="#0B1A5E" transform="translate(268,118)"/>
<path d="M0 0 C3.16115776 1.36983503 3.9927092 1.9890638 6 5 C5.34 5 4.68 5 4 5 C3.67 5.66 3.34 6.32 3 7 C1.5 5.75 1.5 5.75 0 4 C0 2.68 0 1.36 0 0 Z " fill="#081450" transform="translate(71,414)"/>
<path d="M0 0 C7.42857143 -0.28571429 7.42857143 -0.28571429 11 2 C10.34 2 9.68 2 9 2 C9 2.66 9 3.32 9 4 C7.35 4 5.7 4 4 4 C4 3.34 4 2.68 4 2 C2.68 1.34 1.36 0.68 0 0 Z " fill="#091553" transform="translate(171,397)"/>
<path d="M0 0 C0 0.66 0 1.32 0 2 C-1.98 2.33 -3.96 2.66 -6 3 C-6 2.34 -6 1.68 -6 1 C-6.99 0.67 -7.98 0.34 -9 0 C-5.67465243 -1.10844919 -3.37817425 -0.84454356 0 0 Z " fill="#0A1653" transform="translate(377,378)"/>
<path d="M0 0 C4.67692308 1.47692308 4.67692308 1.47692308 6.3125 4.125 C6.539375 4.74375 6.76625 5.3625 7 6 C5.68 6.33 4.36 6.66 3 7 C0 2.25 0 2.25 0 0 Z " fill="#0C175D" transform="translate(477,163)"/>
<path d="M0 0 C0.99 0 1.98 0 3 0 C3 0.66 3 1.32 3 2 C3.66 2 4.32 2 5 2 C5.33 3.98 5.66 5.96 6 8 C1.2 4.55384615 1.2 4.55384615 0.1875 1.75 C0.125625 1.1725 0.06375 0.595 0 0 Z " fill="#112171" transform="translate(430,113)"/>
<path d="M0 0 C0.33 0.66 0.66 1.32 1 2 C1.99 2.33 2.98 2.66 4 3 C-0.3164922 3.76173392 -3.74433453 4.16063604 -8 3 C-8 2.67 -8 2.34 -8 2 C-5.36 1.34 -2.72 0.68 0 0 Z " fill="#091446" transform="translate(187,394)"/>
<path d="M0 0 C4.67692308 1.47692308 4.67692308 1.47692308 6.3125 4.125 C6.539375 4.74375 6.76625 5.3625 7 6 C6.34 6 5.68 6 5 6 C5 5.34 5 4.68 5 4 C3.68 4.33 2.36 4.66 1 5 C0.67 3.35 0.34 1.7 0 0 Z " fill="#0C175C" transform="translate(406,161)"/>
<path d="M0 0 C4.03174806 0.27489191 5.56894631 0.53491576 8.375 3.5625 C8.91125 4.366875 9.4475 5.17125 10 6 C9.01 6.495 9.01 6.495 8 7 C6.66382648 6.02471263 5.3311249 5.04466681 4 4.0625 C3.2575 3.51722656 2.515 2.97195312 1.75 2.41015625 C1.1725 1.94480469 0.595 1.47945312 0 1 C0 0.67 0 0.34 0 0 Z " fill="#0D195C" transform="translate(385,149)"/>
<path d="M0 0 C1.65 0 3.3 0 5 0 C5 0.99 5 1.98 5 3 C5.99 3.99 6.98 4.98 8 6 C5.03 5.01 2.06 4.02 -1 3 C-0.67 2.01 -0.34 1.02 0 0 Z " fill="#17277A" transform="translate(383,148)"/>
<path d="M0 0 C0.99 0.33 1.98 0.66 3 1 C0.36 2.98 -2.28 4.96 -5 7 C-5.66 6.67 -6.32 6.34 -7 6 C-4.74259377 3.66475218 -2.7194239 1.81294927 0 0 Z " fill="#0C1863" transform="translate(240,426)"/>
<path d="M0 0 C1.32 1.32 2.64 2.64 4 4 C3.01 5.485 3.01 5.485 2 7 C1.01 6.34 0.02 5.68 -1 5 C-0.67 3.35 -0.34 1.7 0 0 Z " fill="#101F6D" transform="translate(51,390)"/>
<path d="M0 0 C1.65 0 3.3 0 5 0 C4.34 1.65 3.68 3.3 3 5 C1.68 5 0.36 5 -1 5 C-0.67 3.35 -0.34 1.7 0 0 Z " fill="#12216D" transform="translate(444,312)"/>
<path d="M0 0 C2.1875 1.4375 2.1875 1.4375 4 3 C3.67 3.99 3.34 4.98 3 6 C1.125 5.75 1.125 5.75 -1 5 C-2.25 2.9375 -2.25 2.9375 -3 1 C-2.01 0.67 -1.02 0.34 0 0 Z " fill="#0C1958" transform="translate(54,395)"/>
<path d="M0 0 C0.99 0.33 1.98 0.66 3 1 C4.1875 3.5625 4.1875 3.5625 5 6 C4.34 6 3.68 6 3 6 C2.67 6.66 2.34 7.32 2 8 C0 2.25 0 2.25 0 0 Z " fill="#112268" transform="translate(89,358)"/>
<path d="M0 0 C0.66 0 1.32 0 2 0 C1.01 2.97 0.02 5.94 -1 9 C-1.66 9 -2.32 9 -3 9 C-2.01 6.03 -1.02 3.06 0 0 Z " fill="#16256C" transform="translate(494,330)"/>
<path d="M0 0 C1.32 0 2.64 0 4 0 C4.33 1.98 4.66 3.96 5 6 C3.68 6 2.36 6 1 6 C0.67 4.02 0.34 2.04 0 0 Z " fill="#132477" transform="translate(497,205)"/>
<path d="M0 0 C2.9375 0.8125 2.9375 0.8125 6 2 C6.33 2.99 6.66 3.98 7 5 C4.625 4.75 4.625 4.75 2 4 C0.6875 1.9375 0.6875 1.9375 0 0 Z " fill="#081250" transform="translate(464,146)"/>
<path d="M0 0 C-1.49097658 3.7952131 -3.75700849 5.61042731 -7 8 C-6.44414399 4.1090079 -4.34122117 0 0 0 Z " fill="#15246B" transform="translate(196,354)"/>
<path d="M0 0 C0.99 0.33 1.98 0.66 3 1 C2.01 2.98 1.02 4.96 0 7 C-0.99 6.34 -1.98 5.68 -3 5 C-2.01 3.35 -1.02 1.7 0 0 Z " fill="#152477" transform="translate(415,351)"/>
<path d="M0 0 C0.66 0.66 1.32 1.32 2 2 C1.625 5.125 1.625 5.125 1 8 C0.34 8 -0.32 8 -1 8 C-1.93065133 5.39417629 -2.14917407 4.35801776 -1.0625 1.75 C-0.711875 1.1725 -0.36125 0.595 0 0 Z " fill="#0C1B68" transform="translate(197,344)"/>
<path d="M0 0 C0.33 0 0.66 0 1 0 C0.67 3.63 0.34 7.26 0 11 C-0.33 11 -0.66 11 -1 11 C-2.25 3.375 -2.25 3.375 0 0 Z " fill="#0B1A66" transform="translate(244,332)"/>
<path d="M0 0 C2.475 0.495 2.475 0.495 5 1 C5 2.32 5 3.64 5 5 C3.68 5 2.36 5 1 5 C0.67 3.35 0.34 1.7 0 0 Z " fill="#0A1550" transform="translate(445,213)"/>
<path d="M0 0 C1.65 1.65 3.3 3.3 5 5 C4.67 5.99 4.34 6.98 4 8 C0 3.375 0 3.375 0 0 Z " fill="#142191" transform="translate(434,192)"/>
<path d="M0 0 C0.33 0 0.66 0 1 0 C1.93402724 5.41735797 2.20808081 8.80451575 0 14 C-0.33 14 -0.66 14 -1 14 C-1.08333357 9.1666528 -0.95261487 4.76307437 0 0 Z " fill="#0C2079" transform="translate(292,174)"/>
<path d="M0 0 C2.88437779 1.29299694 4.87219421 2.65941363 7 5 C4.69 4.67 2.38 4.34 0 4 C0 2.68 0 1.36 0 0 Z " fill="#0E1C6C" transform="translate(302,431)"/>
<path d="M0 0 C2.475 0.495 2.475 0.495 5 1 C5 2.98 5 4.96 5 7 C3.29115995 5.37660195 1.62553283 3.70680947 0 2 C0 1.34 0 0.68 0 0 Z " fill="#16288D" transform="translate(60,405)"/>
<path d="M0 0 C1 3 1 3 0.0625 5.1875 C-0.4634375 6.0846875 -0.4634375 6.0846875 -1 7 C-1 6.34 -1 5.68 -1 5 C-1.66 5 -2.32 5 -3 5 C-3.33 5.99 -3.66 6.98 -4 8 C-4 6.68 -4 5.36 -4 4 C-3.34 4 -2.68 4 -2 4 C-1.34 2.68 -0.68 1.36 0 0 Z " fill="#0D1C7D" transform="translate(294,397)"/>
<path d="M0 0 C0.66 0 1.32 0 2 0 C2.66 2.97 3.32 5.94 4 9 C0.06153846 5.67692308 0.06153846 5.67692308 -0.25 2.25 C-0.1675 1.5075 -0.085 0.765 0 0 Z " fill="#0A1553" transform="translate(87,355)"/>
<path d="M0 0 C0.66 0 1.32 0 2 0 C2.33 0.99 2.66 1.98 3 3 C2.01 3.33 1.02 3.66 0 4 C-1.20882096 6.00016466 -1.20882096 6.00016466 -2 8 C-1.125 2.25 -1.125 2.25 0 0 Z " fill="#0B175C" transform="translate(486,343)"/>
<path d="M0 0 C1.98 1.65 3.96 3.3 6 5 C4.02 5.99 4.02 5.99 2 7 C0 4 0 4 0 0 Z " fill="#132B79" transform="translate(456,134)"/>
<path d="M0 0 C2 1 2 1 2 1 Z " fill="#0000FF" transform="translate(433,197)"/>
<path d="M0 0 C2 1 2 1 2 1 Z " fill="#0000C6" transform="translate(374,148)"/>
<path d="" fill="#00007F" transform="translate(0,0)"/>
<path d="" fill="#0000FF" transform="translate(0,0)"/>
<path d="" fill="#0000FF" transform="translate(0,0)"/>
<path d="" fill="#0000C6" transform="translate(0,0)"/>
<path d="" fill="#0000C6" transform="translate(0,0)"/>
<path d="" fill="#0000FF" transform="translate(0,0)"/>
</svg>
